<svg width="32px" height="43px" viewBox="0 0 32 43" version="1.1" xmlns="http://www.w3.org/2000/svg" xmlns:xlink="http://www.w3.org/1999/xlink"><title>100% https by Fastcommerce</title><defs><polygon id="path-1" points="31.8102118 26.5517241 0 26.5517241 0 0.911508046 31.8102118 0.911508046"></polygon><polygon id="path-3" points="0 42.6862561 31.8116749 42.6862561 31.8116749 0.00221011494 0 0.00221011494"></polygon></defs><g id="Page-1" stroke="none" stroke-width="1" fill="none" fill-rule="evenodd"><title>100% https by Fastcommerce</title><g id="Artboard" transform="translate(-340.000000, -292.000000)"><g id="Group-9" transform="translate(340.000000, 292.000000)"><g id="Group-8"><g id="Page-1"><path d="M24.1584384,25.3320492 C24.1584384,29.8435664 20.4081429,33.5383021 15.8287833,33.5383021 C11.2445468,33.5383021 7.49425123,29.8435664 7.49425123,25.3320492 L7.49425123,11.9800722 C7.49425123,7.45894575 11.2445468,3.76901471 15.8287833,3.76901471 C20.4081429,3.76901471 24.1584384,7.45894575 24.1584384,11.9800722 L24.1584384,25.3320492 L24.1584384,25.3320492 Z M16.1701626,0.00221011494 L15.4874039,0.00221011494 C8.82075369,0.00221011494 3.36843842,5.37375034 3.36843842,11.9416354 L3.36843842,28.2772676 C3.36843842,34.8451526 8.82075369,40.2214975 15.4874039,40.2214975 L16.1701626,40.2214975 C22.8368128,40.2214975 28.2891281,34.8451526 28.2891281,28.2772676 L28.2891281,11.9416354 C28.2891281,5.37375034 22.8368128,0.00221011494 16.1701626,0.00221011494 L16.1701626,0.00221011494 Z" id="Fill-1" fill="#1F2123"></path><path d="M24.1584384,25.3320492 C24.1584384,29.8435664 20.4081429,33.5383021 15.8287833,33.5383021 C11.2445468,33.5383021 7.49425123,29.8435664 7.49425123,25.3320492 L7.49425123,11.9800722 C7.49425123,7.45894575 11.2445468,3.76901471 15.8287833,3.76901471 C20.4081429,3.76901471 24.1584384,7.45894575 24.1584384,11.9800722 L24.1584384,25.3320492 Z M16.1213941,0.468256092 L15.550803,0.468256092 C9.14750246,0.468256092 3.91464532,5.62839402 3.91464532,11.9416354 L3.91464532,28.4310147 C3.91464532,34.7394515 9.14750246,39.8995894 15.550803,39.8995894 L16.1213941,39.8995894 C22.5246946,39.8995894 27.7624286,34.7394515 27.7624286,28.4310147 L27.7624286,11.9416354 C27.7624286,5.62839402 22.5246946,0.468256092 16.1213941,0.468256092 L16.1213941,0.468256092 Z" id="Fill-3" fill="#FFFFFF"></path><path d="M24.1584384,25.3320492 C24.1584384,29.8435664 20.4081429,33.5383021 15.8287833,33.5383021 C11.2445468,33.5383021 7.49425123,29.8435664 7.49425123,25.3320492 L7.49425123,11.9800722 C7.49425123,7.45894575 11.2445468,3.76901471 15.8287833,3.76901471 C20.4081429,3.76901471 24.1584384,7.45894575 24.1584384,11.9800722 L24.1584384,25.3320492 Z M15.8434138,0.775750345 L15.8287833,0.775750345 C9.42548276,0.775750345 4.18774877,5.93588828 4.18774877,12.2395205 L4.18774877,27.8160262 C4.18774877,34.1196584 9.42548276,39.2797963 15.8287833,39.2797963 L15.8434138,39.2797963 C22.2418374,39.2797963 27.4844483,34.1196584 27.4844483,27.8160262 L27.4844483,12.2395205 C27.4844483,5.93588828 22.2418374,0.775750345 15.8434138,0.775750345 L15.8434138,0.775750345 Z" id="Fill-5" fill="#979596"></path><path d="M5.51766502,21.2827343 L5.51766502,12.5719986 C5.51766502,6.78245839 10.3262365,2.04992966 16.1979606,2.04992966 C16.3052512,2.04992966 16.4125419,2.05473425 16.5149557,2.05473425 C16.2077143,2.02590667 15.9004729,2.01149287 15.5834778,2.01149287 C9.87268966,2.01149287 5.1957931,6.61910207 5.1957931,12.2500906 L5.1957931,21.3548032 C5.1957931,25.7846423 8.09264039,29.5850791 12.1111626,30.9976308 C8.24869951,29.407309 5.51766502,25.645309 5.51766502,21.2827343" id="Fill-7" fill="#444445"></path><path d="M16.4003498,2.05041011 C21.8185271,2.73746759 26.0418768,7.32585839 26.0418768,12.8415366 L26.0418768,25.602548 C26.0418768,28.0336745 25.2225665,30.2870308 23.8424187,32.1031687 C25.5785764,30.2197664 26.6417291,27.7261802 26.6417291,24.9923641 L26.6417291,12.6253297 C26.6417291,6.96551356 22.077,2.31466299 16.4003498,2.05041011" id="Fill-9" fill="#FFFFFF"></path><path d="M7.4727931,17.2944377 L7.4727931,11.4856791 C7.4727931,9.53020782 8.9260936,7.37294345 8.9260936,7.37294345 C8.9260936,7.37294345 7.1216601,9.18427678 7.1216601,11.5625526 L7.1216601,17.4529894 L7.4727931,17.2944377 Z" id="Fill-11" fill="#444445"></path><g id="Group-15" transform="translate(0.000000, 16.134532)"><mask id="mask-2" fill="white"><use xlink:href="#path-1"></use></mask><g id="Clip-14"></g><path d="M30.4544483,0.911508046 L1.35430049,0.911508046 C0.608142857,0.911508046 -0.00146305419,1.51208276 -0.00146305419,2.24718621 L-0.00146305419,25.2179678 C-0.00146305419,25.9530713 0.608142857,26.553646 1.35430049,26.553646 L30.4544483,26.553646 C31.2006059,26.553646 31.8102118,25.9530713 31.8102118,25.2179678 L31.8102118,2.24718621 C31.8102118,1.51208276 31.2006059,0.911508046 30.4544483,0.911508046" id="Fill-13" fill="#F9CB4B" mask="url(#mask-2)"></path></g><mask id="mask-4" fill="white"><use xlink:href="#path-3"></use></mask><g id="Clip-17"></g><polygon id="Fill-16" fill="#D89830" mask="url(#mask-4)" points="28.9587192 42.6862561 30.2169458 42.6862561 30.2169458 17.0441182 28.9587192 17.0441182"></polygon><polygon id="Fill-18" fill="#DDA137" mask="url(#mask-4)" points="27.9345813 42.6862561 28.9587192 42.6862561 28.9587192 17.0441182 27.9345813 17.0441182"></polygon><polygon id="Fill-19" fill="#E5AC3C" mask="url(#mask-4)" points="26.9494581 42.6862561 27.9345813 42.6862561 27.9345813 17.0441182 26.9494581 17.0441182"></polygon><polygon id="Fill-20" fill="#EBB642" mask="url(#mask-4)" points="26.1203941 42.6862561 26.9982266 42.6862561 26.9982266 17.0441182 26.1203941 17.0441182"></polygon><polygon id="Fill-21" fill="#F2C249" mask="url(#mask-4)" points="25.2181773 42.6862561 26.1691626 42.6862561 26.1691626 17.0441182 25.2181773 17.0441182"></polygon><polygon id="Fill-22" fill="#F8CB5E" mask="url(#mask-4)" points="11.0558128 42.6862561 12.006798 42.6862561 12.006798 17.0441182 11.0558128 17.0441182"></polygon><polygon id="Fill-23" fill="#F4CC71" mask="url(#mask-4)" points="10.2560099 42.6862561 11.2069951 42.6862561 11.2069951 17.0441182 10.2560099 17.0441182"></polygon><polygon id="Fill-24" fill="#F9D48A" mask="url(#mask-4)" points="9.37817734 42.6862561 10.3291626 42.6862561 10.3291626 17.0441182 9.37817734 17.0441182"></polygon><polygon id="Fill-25" fill="#F4D68E" mask="url(#mask-4)" points="8.58325123 42.6862561 9.53423645 42.6862561 9.53423645 17.0441182 8.58325123 17.0441182"></polygon><polygon id="Fill-26" fill="#FFE09C" mask="url(#mask-4)" points="7.70541872 42.6862561 8.65640394 42.6862561 8.65640394 17.0441182 7.70541872 17.0441182"></polygon><polygon id="Fill-27" fill="#FFEECC" mask="url(#mask-4)" points="6.82758621 42.6862561 7.77857143 42.6862561 7.77857143 17.0441182 6.82758621 17.0441182"></polygon><polygon id="Fill-28" fill="#FFE09C" mask="url(#mask-4)" points="6.02778325 42.6862561 6.97876847 42.6862561 6.97876847 17.0441182 6.02778325 17.0441182"></polygon><polygon id="Fill-29" fill="#F4D68E" mask="url(#mask-4)" points="5.23285714 42.6862561 6.18384236 42.6862561 6.18384236 17.0441182 5.23285714 17.0441182"></polygon><polygon id="Fill-30" fill="#F9D48A" mask="url(#mask-4)" points="4.35502463 42.6862561 5.30600985 42.6862561 5.30600985 17.0441182 4.35502463 17.0441182"></polygon><polygon id="Fill-31" fill="#F4CC71" mask="url(#mask-4)" points="3.47719212 42.6862561 4.42817734 42.6862561 4.42817734 17.0441182 3.47719212 17.0441182"></polygon><polygon id="Fill-32" fill="#F8CB5E" mask="url(#mask-4)" points="2.5262069 42.6862561 3.47719212 42.6862561 3.47719212 17.0441182 2.5262069 17.0441182"></polygon><polygon id="Fill-33" fill="#F8CB5E" mask="url(#mask-4)" points="1.58009852 42.6862561 2.53108374 42.6862561 2.53108374 17.0441182 1.58009852 17.0441182"></polygon><path d="M30.4544483,17.04604 L30.0350394,17.04604 L30.0350394,42.6881779 L30.4544483,42.6881779 C31.2006059,42.6881779 31.8102118,42.0876032 31.8102118,41.3524998 L31.8102118,18.3817182 C31.8102118,17.6466147 31.2006059,17.04604 30.4544483,17.04604" id="Fill-34" fill="#CE8A28" mask="url(#mask-4)"></path><path d="M0.738842365,17.200748 C0.304802956,17.4217595 0.00243842365,17.8685871 0.00243842365,18.3826791 L0.00243842365,41.3486561 C0.00243842365,41.8675526 0.304802956,42.3095756 0.738842365,42.5305871 L0.738842365,17.200748 Z" id="Fill-35" fill="#F2C249" mask="url(#mask-4)"></path><path d="M30.4544483,17.04604 L1.35430049,17.04604 C0.608142857,17.04604 -0.00146305419,17.6466147 -0.00146305419,18.3817182 L-0.00146305419,18.7324538 C4.09996552,19.7798561 9.71321675,20.4284768 15.9068128,20.4284768 C22.1004089,20.4284768 27.7136601,19.7798561 31.8102118,18.7324538 L31.8102118,18.3817182 C31.8102118,17.6466147 31.2006059,17.04604 30.4544483,17.04604" id="Fill-36" fill="#EBB642" mask="url(#mask-4)"></path><path d="M30.4544483,17.04604 L1.53962069,17.04604 L1.53962069,17.3295113 L30.5227241,17.3295113 C30.5227241,17.3295113 31.4834631,17.6177871 31.4834631,18.276017 L31.4834631,18.8093274 C31.5907537,18.7804998 31.7029212,18.7516722 31.8102118,18.7324538 L31.8102118,18.3817182 C31.8102118,17.6466147 31.2006059,17.04604 30.4544483,17.04604" id="Fill-37" fill="#8A692F" mask="url(#mask-4)"></path><text id="100%" mask="url(#mask-4)" font-family="Arial-BoldMT, Arial" font-size="10" font-weight="bold" fill="#1F2123"><tspan x="2.7394636" y="28.9463602">100%</tspan></text><text id="https" mask="url(#mask-4)" font-family="Arial-BoldMT, Arial" font-size="10" font-weight="bold" fill="#1F2123"><tspan x="4.25670498" y="38.0498084">https</tspan></text></g></g></g></g></g></svg>