<svg width="119.66px" height="40px" enable-background="new 0 0 119.664 40" version="1.1" viewBox="0 0 119.664 40" xml:space="preserve" xmlns="http://www.w3.org/2000/svg"><path d="m110.14 0h-100.6c-0.367 0-0.729 0-1.095 2e-3 -0.306 2e-3 -0.61 8e-3 -0.919 0.013-0.671 7e-3 -1.341 0.067-2.004 0.176-0.662 0.113-1.302 0.324-1.901 0.627-0.597 0.307-1.144 0.704-1.618 1.179-0.477 0.474-0.875 1.021-1.179 1.621-0.303 0.599-0.514 1.241-0.625 1.903s-0.171 1.332-0.179 2.002c-9e-3 0.307-0.01 0.615-0.015 0.921v23.115c5e-3 0.311 6e-3 0.61 0.015 0.922 8e-3 0.67 0.068 1.34 0.179 2.002 0.11 0.662 0.321 1.305 0.625 1.903 0.303 0.598 0.701 1.143 1.178 1.614 0.473 0.479 1.02 0.875 1.619 1.18s1.239 0.518 1.901 0.631c0.663 0.108 1.333 0.168 2.004 0.176 0.309 8e-3 0.613 0.012 0.919 0.012 0.366 1e-3 0.728 1e-3 1.095 1e-3h100.6c0.359 0 0.725 0 1.084-2e-3 0.305 0 0.617-4e-3 0.922-0.012 0.67-8e-3 1.34-0.066 2-0.176 0.664-0.115 1.307-0.328 1.908-0.631 0.6-0.305 1.145-0.701 1.617-1.18 0.477-0.473 0.875-1.018 1.182-1.614 0.303-0.6 0.512-1.241 0.619-1.903 0.111-0.662 0.174-1.332 0.186-2.002 4e-3 -0.312 4e-3 -0.611 4e-3 -0.922 9e-3 -0.363 9e-3 -0.726 9e-3 -1.095v-20.927c0-0.366 0-0.729-9e-3 -1.092 0-0.307 0-0.614-4e-3 -0.921-0.012-0.671-0.073-1.34-0.186-2.002-0.109-0.662-0.316-1.304-0.619-1.903-0.617-1.203-1.596-2.182-2.799-2.8-0.602-0.303-1.244-0.514-1.908-0.627-0.66-0.11-1.33-0.169-2-0.177-0.305-5e-3 -0.617-0.011-0.922-0.013-0.36-1e-3 -0.725-1e-3 -1.084-1e-3z" fill="#A6A6A6"/><path d="m8.445 39.125c-0.305 0-0.602-4e-3 -0.904-0.011-0.626-9e-3 -1.251-0.063-1.869-0.163-0.576-0.1-1.135-0.283-1.657-0.549-0.517-0.262-0.989-0.604-1.397-1.017-0.414-0.405-0.759-0.879-1.021-1.396-0.265-0.521-0.448-1.08-0.543-1.657-0.103-0.62-0.159-1.247-0.167-1.875-6e-3 -0.211-0.015-0.913-0.015-0.913v-23.1s9e-3 -0.691 0.015-0.895c8e-3 -0.627 0.063-1.253 0.166-1.872 0.096-0.579 0.279-1.139 0.543-1.662 0.261-0.517 0.604-0.989 1.016-1.397 0.411-0.412 0.884-0.758 1.402-1.023 0.521-0.263 1.078-0.446 1.653-0.544 0.62-0.102 1.247-0.156 1.875-0.164l0.902-0.012h102.77l0.913 0.013c0.623 7e-3 1.244 0.062 1.858 0.163 0.58 0.099 1.144 0.283 1.67 0.548 1.037 0.535 1.884 1.381 2.416 2.42 0.261 0.52 0.439 1.076 0.535 1.649 0.104 0.624 0.162 1.255 0.174 1.887 3e-3 0.283 3e-3 0.587 3e-3 0.89 8e-3 0.375 8e-3 0.732 8e-3 1.092v20.929c0 0.363 0 0.718-8e-3 1.075 0 0.325 0 0.623-5e-3 0.93-0.012 0.621-0.067 1.241-0.17 1.854-0.094 0.581-0.275 1.146-0.541 1.67-0.264 0.513-0.605 0.979-1.016 1.386-0.408 0.414-0.881 0.76-1.398 1.021-0.525 0.268-1.088 0.451-1.668 0.551-0.618 0.102-1.243 0.154-1.869 0.163-0.293 7e-3 -0.6 0.011-0.897 0.011l-1.084 2e-3 -101.69-4e-3z"/><path d="m60.973 22.672c-2.189 0-3.976 1.664-3.976 3.96 0 2.281 1.786 3.962 3.976 3.962 2.191 0 3.978-1.681 3.978-3.962-2e-3 -2.296-1.787-3.96-3.978-3.96zm0 6.36c-1.2 0-2.235-0.989-2.235-2.4 0-1.425 1.035-2.399 2.235-2.399s2.235 0.976 2.235 2.399c0 1.411-1.035 2.4-2.235 2.4zm-8.674-6.36c-2.19 0-3.976 1.664-3.976 3.96 0 2.281 1.786 3.962 3.976 3.962 2.191 0 3.976-1.681 3.976-3.962 0-2.296-1.785-3.96-3.976-3.96zm0 6.36c-1.2 0-2.236-0.989-2.236-2.4 0-1.425 1.036-2.399 2.236-2.399s2.235 0.976 2.235 2.399c1e-3 1.411-1.034 2.4-2.235 2.4zm-10.318-5.145v1.682h4.021c-0.12 0.943-0.435 1.636-0.916 2.115-0.585 0.584-1.5 1.229-3.106 1.229-2.476 0-4.411-1.996-4.411-4.472 0-2.477 1.935-4.471 4.411-4.471 1.336 0 2.311 0.525 3.031 1.2l1.185-1.186c-1.005-0.96-2.34-1.695-4.216-1.695-3.391 0-6.242 2.761-6.242 6.15 0 3.391 2.851 6.152 6.242 6.152 1.831 0 3.211-0.601 4.291-1.727 1.11-1.109 1.456-2.67 1.456-3.932 0-0.39-0.03-0.748-0.09-1.05h-5.656v5e-3zm42.197 1.304c-0.33-0.885-1.336-2.521-3.392-2.521-2.041 0-3.735 1.604-3.735 3.96 0 2.221 1.682 3.962 3.932 3.962 1.813 0 2.865-1.11 3.301-1.756l-1.352-0.899c-0.449 0.66-1.063 1.095-1.949 1.095-0.887 0-1.517-0.405-1.92-1.2l5.295-2.189-0.18-0.452zm-5.403 1.321c-0.045-1.529 1.187-2.311 2.07-2.311 0.69 0 1.274 0.346 1.471 0.841l-3.541 1.47zm-4.304 3.842h1.739v-11.644h-1.739v11.644zm-2.852-6.797h-0.061c-0.391-0.465-1.141-0.885-2.086-0.885-1.979 0-3.795 1.741-3.795 3.977 0 2.22 1.814 3.945 3.795 3.945 0.945 0 1.695-0.421 2.086-0.9h0.061v0.57c0 1.516-0.811 2.325-2.115 2.325-1.064 0-1.727-0.766-1.996-1.409l-1.515 0.629c0.435 1.051 1.59 2.342 3.511 2.342 2.04 0 3.766-1.2 3.766-4.127v-7.11h-1.65l-1e-3 0.643zm-1.995 5.475c-1.201 0-2.206-1.007-2.206-2.384 0-1.397 1.005-2.416 2.206-2.416 1.185 0 2.114 1.019 2.114 2.416 0 1.377-0.929 2.384-2.114 2.384zm22.705-10.322h-4.163v11.644h1.736v-4.412h2.427c1.927 0 3.819-1.396 3.819-3.615 0-2.221-1.892-3.617-3.819-3.617zm0.046 5.61h-2.473v-3.989h2.473c1.299 0 2.036 1.075 2.036 1.995 0 0.903-0.737 1.994-2.036 1.994zm10.738-1.67c-1.258 0-2.561 0.555-3.1 1.781l1.541 0.645c0.329-0.645 0.944-0.854 1.588-0.854 0.899 0 1.813 0.538 1.828 1.498v0.119c-0.314-0.181-0.988-0.449-1.813-0.449-1.662 0-3.354 0.914-3.354 2.621 0 1.557 1.363 2.562 2.891 2.562 1.168 0 1.813-0.523 2.218-1.14h0.06v0.898h1.68v-4.464c-4e-3 -2.062-1.547-3.217-3.539-3.217zm-0.209 6.381c-0.569 0-1.363-0.286-1.363-0.99 0-0.898 0.988-1.242 1.843-1.242 0.765 0 1.123 0.164 1.587 0.391-0.134 1.078-1.063 1.841-2.067 1.841zm9.856-6.127l-1.992 5.048h-0.06l-2.067-5.048h-1.871l3.101 7.055-1.769 3.925h1.813l4.778-10.979h-1.933v-1e-3zm-15.653 7.45h1.736v-11.644h-1.736v11.644z" fill="#fff"/><linearGradient id="d" x1="300.42" x2="284.79" y1="414.52" y2="430.14" gradientTransform="translate(-282.6 -404.99)" gradientUnits="userSpaceOnUse"><stop stop-color="#00A0FF" offset="0"/><stop stop-color="#00A1FF" offset=".0066"/><stop stop-color="#00BEFF" offset=".2601"/><stop stop-color="#00D2FF" offset=".5122"/><stop stop-color="#00DFFF" offset=".7604"/><stop stop-color="#00E3FF" offset="1"/></linearGradient><path d="m7.237 8.434c-0.271 0.288-0.431 0.733-0.431 1.31v20.596c0 0.577 0.16 1.021 0.431 1.309l0.069 0.066 11.538-11.537v-0.274l-11.538-11.538-0.069 0.068z" fill="url(#d)"/><linearGradient id="c" x1="311.63" x2="289.09" y1="425.03" y2="425.03" gradientTransform="translate(-282.6 -404.99)" gradientUnits="userSpaceOnUse"><stop stop-color="#FFE000" offset="0"/><stop stop-color="#FFBD00" offset=".4087"/><stop stop-color="#FFA500" offset=".7754"/><stop stop-color="#FF9C00" offset="1"/></linearGradient><path d="m22.689 24.023l-3.846-3.848v-0.271l3.847-3.846 0.087 0.049 4.557 2.588c1.301 0.74 1.301 1.95 0 2.69l-4.557 2.588-0.088 0.05z" fill="url(#c)"/><linearGradient id="b" x1="303.24" x2="282.04" y1="427.17" y2="448.36" gradientTransform="translate(-282.6 -404.99)" gradientUnits="userSpaceOnUse"><stop stop-color="#FF3A44" offset="0"/><stop stop-color="#C31162" offset="1"/></linearGradient><path d="m22.777 23.975l-3.934-3.935-11.606 11.606c0.429 0.455 1.137 0.512 1.935 0.059l13.605-7.73" fill="url(#b)"/><linearGradient id="a" x1="286.91" x2="296.38" y1="406.57" y2="416.03" gradientTransform="translate(-282.6 -404.99)" gradientUnits="userSpaceOnUse"><stop stop-color="#32A071" offset="0"/><stop stop-color="#2DA771" offset=".0685"/><stop stop-color="#15CF74" offset=".4762"/><stop stop-color="#06E775" offset=".8009"/><stop stop-color="#00F076" offset="1"/></linearGradient><path d="M22.777,16.108L9.172,8.377C8.374,7.924,7.666,7.981,7.237,8.434L18.843,20.04L22.777,16.108z" fill="url(#a)"/><path d="m22.69 23.889l-13.518 7.68c-0.756 0.43-1.432 0.399-1.866 0.012l-0.069 0.068 0.069 0.066v-2e-3c0.434 0.393 1.11 0.421 1.866-9e-3l13.605-7.729-0.087-0.086z" enable-background="new    " opacity=".2"/><path d="m7.237 31.514c-0.271-0.289-0.431-0.731-0.431-1.31v0.135c0 0.577 0.16 1.022 0.431 1.31l0.069-0.067-0.069-0.068z" enable-background="new    " opacity=".12"/><path d="m27.333 21.25l-4.644 2.639 0.087 0.086 4.557-2.588c0.65-0.371 0.976-0.859 0.976-1.345-0.055 0.44-0.386 0.871-0.976 1.208z" enable-background="new    " opacity=".12"/><path d="m9.172 8.514l18.162 10.318c0.59 0.335 0.921 0.77 0.976 1.208 0-0.485-0.325-0.975-0.976-1.344l-18.162-10.319c-1.302-0.738-2.366-0.125-2.366 1.366v0.137c0-1.492 1.064-2.107 2.366-1.366z" enable-background="new    " fill="#fff" opacity=".25"/><g fill="#fff" stroke="#fff" stroke-miterlimit="10" stroke-width=".2"><path d="m36.171 13.834v-6h1.835c0.922 0 1.659 0.277 2.213 0.834 0.553 0.555 0.829 1.277 0.829 2.166s-0.277 1.609-0.829 2.166c-0.554 0.557-1.291 0.834-2.213 0.834h-1.835zm0.77-0.738h1.064c0.692 0 1.241-0.197 1.646-0.594s0.607-0.953 0.607-1.668c0-0.709-0.202-1.264-0.607-1.664-0.405-0.398-0.954-0.6-1.646-0.6h-1.064v4.526z"/><path d="m42.13 13.834v-6h0.77v6h-0.77z"/><path d="m45.967 13.967c-0.436 0-0.861-0.141-1.277-0.426-0.417-0.285-0.689-0.686-0.817-1.199l0.704-0.285c0.084 0.33 0.255 0.607 0.515 0.834 0.261 0.227 0.552 0.34 0.876 0.34 0.335 0 0.622-0.088 0.859-0.264s0.355-0.416 0.355-0.717c0-0.336-0.118-0.594-0.355-0.775s-0.613-0.35-1.127-0.508c-0.531-0.166-0.934-0.383-1.207-0.648s-0.411-0.605-0.411-1.018c0-0.432 0.171-0.805 0.512-1.123s0.785-0.479 1.332-0.479c0.509 0 0.922 0.127 1.24 0.381 0.318 0.256 0.525 0.533 0.62 0.834l-0.703 0.293c-0.051-0.189-0.175-0.365-0.373-0.527s-0.454-0.242-0.768-0.242c-0.296 0-0.549 0.082-0.758 0.246-0.21 0.166-0.314 0.371-0.314 0.617 0 0.223 0.097 0.412 0.289 0.564 0.193 0.154 0.477 0.293 0.851 0.416 0.296 0.094 0.543 0.186 0.742 0.275 0.198 0.09 0.399 0.209 0.603 0.357 0.204 0.146 0.357 0.332 0.461 0.553s0.155 0.477 0.155 0.766c0 0.291-0.06 0.551-0.18 0.779-0.12 0.23-0.28 0.412-0.479 0.545-0.198 0.135-0.411 0.236-0.641 0.307s-0.464 0.104-0.704 0.104z"/><path d="m49.847 13.834h-0.771v-6h2.045c0.508 0 0.948 0.168 1.319 0.506 0.372 0.338 0.558 0.766 0.558 1.279s-0.186 0.939-0.558 1.277c-0.371 0.338-0.812 0.508-1.319 0.508h-1.274v2.43zm0-3.168h1.291c0.324 0 0.584-0.109 0.779-0.326 0.195-0.219 0.293-0.459 0.293-0.721 0-0.264-0.098-0.504-0.293-0.721-0.195-0.218-0.455-0.328-0.779-0.328h-1.291v2.096z"/><path d="m58.876 13.059c-0.59 0.605-1.323 0.908-2.2 0.908s-1.61-0.303-2.199-0.908c-0.59-0.605-0.884-1.348-0.884-2.225s0.294-1.619 0.884-2.225c0.589-0.607 1.322-0.91 2.199-0.91 0.872 0 1.604 0.305 2.196 0.914s0.888 1.35 0.888 2.221c0 0.877-0.295 1.619-0.884 2.225zm-3.83-0.502c0.444 0.449 0.987 0.674 1.63 0.674s1.187-0.225 1.63-0.674c0.444-0.451 0.667-1.025 0.667-1.723 0-0.699-0.223-1.273-0.667-1.723-0.443-0.449-0.987-0.674-1.63-0.674s-1.186 0.225-1.63 0.674c-0.443 0.449-0.666 1.023-0.666 1.723 0 0.697 0.223 1.271 0.666 1.723z"/><path d="m60.842 13.834v-6h0.938l2.916 4.668h0.033l-0.033-1.156v-3.512h0.771v6h-0.805l-3.051-4.895h-0.033l0.033 1.156v3.738l-0.769 1e-3z"/><path d="m66.842 13.834v-6h0.771v6h-0.771zm0.721-6.469h-0.67l0.437-1.074h0.838l-0.605 1.074z"/><path d="m70.471 13.834l-2.111-6h0.854l1.643 4.869h0.033l1.71-4.869h0.854l-2.18 6h-0.803z"/><path d="m77.828 8.57h-2.732v1.902h2.465v0.721h-2.465v1.902h2.732v0.738h-3.503v-6h3.503v0.737z"/><path d="m79.035 13.834v-6h0.771v5.262h2.598v0.738h-3.369z"/><path d="m85.387 13.834v-6h0.938l2.916 4.668h0.032l-0.032-1.156v-3.512h0.771v6h-0.805l-3.051-4.895h-0.033l0.033 1.156v3.738l-0.769 1e-3z"/><path d="m96.292 13.059c-0.59 0.605-1.323 0.908-2.2 0.908s-1.609-0.303-2.199-0.908-0.884-1.348-0.884-2.225 0.294-1.619 0.884-2.225c0.59-0.607 1.322-0.91 2.199-0.91 0.872 0 1.604 0.305 2.196 0.914s0.888 1.35 0.888 2.221c0 0.877-0.295 1.619-0.884 2.225zm-3.83-0.502c0.444 0.449 0.987 0.674 1.63 0.674s1.188-0.225 1.631-0.674c0.443-0.451 0.666-1.025 0.666-1.723 0-0.699-0.223-1.273-0.666-1.723-0.443-0.449-0.988-0.674-1.631-0.674s-1.186 0.225-1.63 0.674c-0.442 0.449-0.666 1.023-0.666 1.723 0 0.697 0.224 1.271 0.666 1.723z"/></g></svg>