<svg width="119.66px" height="40px" enable-background="new 0 0 119.664 40" version="1.1" viewBox="0 0 119.664 40" xml:space="preserve" xmlns="http://www.w3.org/2000/svg"><path d="m110.14 0h-100.6c-0.367 0-0.729 0-1.095 2e-3 -0.306 2e-3 -0.61 8e-3 -0.919 0.013-0.671 7e-3 -1.341 0.067-2.004 0.176-0.662 0.113-1.302 0.324-1.901 0.627-0.597 0.307-1.144 0.704-1.618 1.179-0.477 0.474-0.875 1.021-1.179 1.621-0.303 0.599-0.514 1.241-0.625 1.903s-0.171 1.332-0.179 2.002c-9e-3 0.307-0.01 0.615-0.015 0.921v23.114c5e-3 0.311 6e-3 0.611 0.015 0.922 8e-3 0.671 0.068 1.34 0.179 2.002 0.11 0.663 0.321 1.305 0.625 1.904 0.303 0.598 0.701 1.144 1.178 1.614 0.473 0.478 1.02 0.875 1.619 1.179 0.599 0.305 1.239 0.518 1.901 0.631 0.663 0.109 1.333 0.168 2.004 0.177 0.309 7e-3 0.613 0.011 0.919 0.011 0.366 2e-3 0.728 2e-3 1.095 2e-3h100.6c0.359 0 0.725 0 1.084-2e-3 0.305 0 0.617-4e-3 0.922-0.011 0.67-9e-3 1.339-0.067 2-0.177 0.664-0.115 1.307-0.327 1.908-0.631 0.599-0.304 1.145-0.701 1.617-1.179 0.477-0.473 0.875-1.018 1.182-1.614 0.302-0.6 0.511-1.242 0.619-1.904 0.111-0.662 0.174-1.331 0.186-2.002 4e-3 -0.311 4e-3 -0.611 4e-3 -0.922 8e-3 -0.363 8e-3 -0.725 8e-3 -1.094v-20.928c0-0.366 0-0.729-8e-3 -1.092 0-0.307 0-0.614-4e-3 -0.921-0.012-0.671-0.074-1.34-0.186-2.002-0.109-0.662-0.317-1.304-0.619-1.903-0.617-1.203-1.596-2.182-2.799-2.8-0.602-0.303-1.244-0.514-1.908-0.627-0.661-0.11-1.33-0.169-2-0.177-0.305-5e-3 -0.617-0.011-0.922-0.013-0.36-1e-3 -0.725-1e-3 -1.084-1e-3z" fill="#A6A6A6"/><path d="m8.445 39.125c-0.305 0-0.602-4e-3 -0.904-0.011-0.626-9e-3 -1.251-0.063-1.869-0.163-0.576-0.1-1.135-0.283-1.657-0.548-0.517-0.262-0.989-0.604-1.397-1.017-0.414-0.406-0.759-0.879-1.021-1.396-0.265-0.521-0.448-1.08-0.543-1.657-0.103-0.62-0.159-1.247-0.167-1.875-6e-3 -0.211-0.015-0.913-0.015-0.913v-23.101s9e-3 -0.691 0.015-0.895c8e-3 -0.627 0.063-1.253 0.166-1.872 0.096-0.579 0.279-1.139 0.543-1.662 0.261-0.517 0.604-0.989 1.016-1.397 0.411-0.412 0.884-0.758 1.402-1.023 0.521-0.263 1.078-0.446 1.653-0.544 0.62-0.102 1.247-0.156 1.875-0.164l0.902-0.012h102.77l0.913 0.013c0.623 7e-3 1.244 0.062 1.858 0.163 0.581 0.099 1.144 0.283 1.671 0.548 1.037 0.535 1.883 1.381 2.415 2.42 0.261 0.52 0.44 1.076 0.535 1.649 0.104 0.624 0.162 1.255 0.174 1.887 3e-3 0.283 3e-3 0.587 3e-3 0.89 8e-3 0.375 8e-3 0.732 8e-3 1.092v20.929c0 0.363 0 0.718-8e-3 1.075 0 0.325 0 0.623-4e-3 0.93-0.012 0.621-0.068 1.241-0.171 1.854-0.093 0.581-0.275 1.145-0.54 1.67-0.264 0.513-0.606 0.979-1.016 1.386-0.408 0.414-0.881 0.759-1.399 1.022-0.525 0.267-1.087 0.451-1.668 0.55-0.618 0.102-1.243 0.155-1.869 0.163-0.293 7e-3 -0.6 0.011-0.897 0.011l-1.084 2e-3 -101.69-4e-3z"/><g fill="#fff"><path d="m24.769 20.301c0.021-1.697 0.911-3.264 2.356-4.152-0.916-1.309-2.395-2.107-3.991-2.158-1.679-0.176-3.307 1.006-4.163 1.006-0.872 0-2.189-0.988-3.608-0.959-1.867 0.061-3.564 1.096-4.473 2.729-1.934 3.348-0.492 8.27 1.361 10.977 0.927 1.324 2.01 2.805 3.428 2.753 1.387-0.058 1.905-0.885 3.58-0.885 1.659 0 2.145 0.885 3.591 0.851 1.488-0.023 2.426-1.33 3.321-2.668 0.666-0.945 1.178-1.988 1.518-3.094-1.769-0.749-2.918-2.48-2.92-4.4z"/><path d="m22.037 12.211c0.812-0.975 1.211-2.227 1.115-3.491-1.24 0.13-2.385 0.723-3.208 1.66-0.813 0.925-1.224 2.134-1.144 3.361 1.257 0.013 2.45-0.552 3.237-1.53z"/></g><g fill="#fff"><path d="m42.302 27.14h-4.733l-1.137 3.356h-2.005l4.483-12.418h2.083l4.483 12.418h-2.039l-1.135-3.356zm-4.243-1.549h3.752l-1.85-5.447h-0.051l-1.851 5.447z"/><path d="m55.16 25.97c0 2.813-1.506 4.621-3.778 4.621-1.175 0.062-2.281-0.554-2.849-1.584h-0.043v4.484h-1.858v-12.049h1.799v1.506h0.034c0.593-1.024 1.7-1.639 2.883-1.601 2.297 1e-3 3.812 1.817 3.812 4.623zm-1.91 0c0-1.833-0.947-3.038-2.393-3.038-1.42 0-2.375 1.23-2.375 3.038 0 1.824 0.955 3.046 2.375 3.046 1.445 0 2.393-1.197 2.393-3.046z"/><path d="m65.125 25.97c0 2.813-1.506 4.621-3.779 4.621-1.174 0.062-2.281-0.554-2.848-1.584h-0.043v4.484h-1.858v-12.049h1.799v1.506h0.034c0.593-1.024 1.7-1.639 2.883-1.601 2.296 1e-3 3.812 1.817 3.812 4.623zm-1.91 0c0-1.833-0.947-3.038-2.393-3.038-1.42 0-2.375 1.23-2.375 3.038 0 1.824 0.955 3.046 2.375 3.046 1.446 0 2.393-1.197 2.393-3.046z"/><path d="m71.711 27.036c0.137 1.231 1.334 2.04 2.969 2.04 1.566 0 2.693-0.809 2.693-1.919 0-0.964-0.68-1.541-2.289-1.937l-1.609-0.388c-2.281-0.551-3.34-1.617-3.34-3.348 0-2.143 1.867-3.614 4.52-3.614 2.623 0 4.422 1.472 4.482 3.614h-1.875c-0.113-1.239-1.137-1.987-2.635-1.987-1.496 0-2.521 0.757-2.521 1.858 0 0.878 0.654 1.395 2.256 1.79l1.367 0.336c2.549 0.603 3.607 1.626 3.607 3.442 0 2.323-1.852 3.778-4.795 3.778-2.754 0-4.613-1.421-4.732-3.667h1.902z"/><path d="m83.346 19.3v2.143h1.723v1.472h-1.723v4.991c0 0.775 0.346 1.137 1.102 1.137 0.205-3e-3 0.409-0.019 0.611-0.043v1.463c-0.34 0.063-0.686 0.093-1.031 0.086-1.834 0-2.549-0.688-2.549-2.444v-5.189h-1.316v-1.472h1.316v-2.144h1.867z"/><path d="m86.064 25.97c0-2.849 1.678-4.639 4.295-4.639 2.625 0 4.295 1.79 4.295 4.639 0 2.856-1.662 4.639-4.295 4.639s-4.295-1.783-4.295-4.639zm6.696 0c0-1.954-0.895-3.107-2.4-3.107s-2.4 1.162-2.4 3.107c0 1.962 0.895 3.106 2.4 3.106s2.4-1.144 2.4-3.106z"/><path d="m96.186 21.442h1.773v1.541h0.043c0.246-0.992 1.156-1.675 2.178-1.636 0.214-1e-3 0.428 0.022 0.637 0.069v1.738c-0.271-0.083-0.553-0.12-0.836-0.112-1.033-0.042-1.904 0.762-1.946 1.795-4e-3 0.096-1e-3 0.192 0.011 0.288v5.37h-1.859v-9.053z"/><path d="m109.38 27.837c-0.25 1.644-1.852 2.771-3.898 2.771-2.635 0-4.27-1.765-4.27-4.596 0-2.84 1.645-4.682 4.191-4.682 2.504 0 4.08 1.721 4.08 4.466v0.637h-6.395v0.112c-0.115 1.298 0.844 2.442 2.141 2.557 0.098 9e-3 0.196 0.011 0.295 8e-3 0.901 0.085 1.752-0.434 2.09-1.273h1.766zm-6.283-2.702h4.527c0.066-1.201-0.853-2.229-2.053-2.295-0.057-3e-3 -0.112-4e-3 -0.168-3e-3 -1.266-8e-3 -2.299 1.013-2.307 2.278 1e-3 6e-3 1e-3 0.014 1e-3 0.02z"/></g><g fill="#fff"><path d="m35.671 14.697v-5.966h2.398c1.121 0 1.795 0.57 1.795 1.488 0 0.622-0.437 1.158-1.046 1.283v0.07c0.762 0.035 1.357 0.672 1.344 1.434 0 1.051-0.765 1.691-2.039 1.691h-2.452zm0.927-3.439h1.1c0.819 0 1.245-0.303 1.245-0.869 0-0.55-0.401-0.873-1.088-0.873h-1.257v1.742zm1.34 2.654c0.835 0 1.277-0.34 1.277-0.972 0-0.624-0.459-0.951-1.331-0.951h-1.286v1.923h1.34z"/><path d="m41.114 13.424c0-0.811 0.604-1.277 1.675-1.344l1.22-0.07v-0.389c0-0.476-0.314-0.744-0.922-0.744-0.496 0-0.84 0.182-0.938 0.5h-0.86c0.091-0.773 0.818-1.269 1.84-1.269 1.129 0 1.766 0.562 1.766 1.513v3.076h-0.855v-0.633h-0.07c-0.291 0.463-0.807 0.732-1.353 0.707-0.747 0.078-1.416-0.465-1.494-1.212-6e-3 -0.044-9e-3 -0.089-9e-3 -0.135zm2.895-0.385v-0.376l-1.1 0.07c-0.62 0.042-0.901 0.253-0.901 0.649 0 0.405 0.352 0.641 0.835 0.641 0.583 0.06 1.104-0.365 1.163-0.949 1e-3 -0.011 2e-3 -0.023 3e-3 -0.035z"/><path d="m46.169 8.863c-0.019-0.317 0.223-0.59 0.541-0.609s0.59 0.223 0.609 0.541-0.223 0.59-0.541 0.609c-0.011 0-0.022 1e-3 -0.034 1e-3 -0.302 0.015-0.559-0.217-0.575-0.519v-0.023zm0.132 1.332h0.886v4.502h-0.886v-4.502z"/><path d="m50.236 13.102l-0.984 1.596h-0.976l1.493-2.24-1.506-2.262h1.038l0.968 1.588h0.07l0.959-1.588h0.988l-1.484 2.225 1.501 2.277h-1.021l-0.98-1.596h-0.066z"/><path d="m53.088 13.424c0-0.811 0.604-1.277 1.675-1.344l1.22-0.07v-0.389c0-0.476-0.314-0.744-0.922-0.744-0.496 0-0.84 0.182-0.938 0.5h-0.86c0.091-0.773 0.818-1.269 1.84-1.269 1.129 0 1.766 0.562 1.766 1.513v3.076h-0.855v-0.633h-0.07c-0.291 0.463-0.807 0.732-1.353 0.707-0.747 0.078-1.416-0.465-1.494-1.212-7e-3 -0.044-9e-3 -0.089-9e-3 -0.135zm2.894-0.385v-0.376l-1.1 0.07c-0.62 0.042-0.901 0.253-0.901 0.649 0 0.405 0.352 0.641 0.835 0.641 0.583 0.06 1.104-0.365 1.163-0.949 1e-3 -0.011 2e-3 -0.023 3e-3 -0.035z"/><path d="m58.259 10.195h0.855v0.69h0.066c0.196-0.491 0.688-0.8 1.216-0.765 0.133-2e-3 0.266 0.011 0.396 0.037v0.877c-0.162-0.034-0.328-0.053-0.495-0.054-0.581-0.053-1.093 0.376-1.145 0.957-3e-3 0.033-4e-3 0.067-4e-3 0.102v2.658h-0.889v-4.502z"/><path d="m64.218 10.195h0.856v0.715h0.066c0.23-0.527 0.77-0.849 1.344-0.802 0.807-0.061 1.51 0.544 1.57 1.351 8e-3 0.107 4e-3 0.217-0.012 0.324v2.914h-0.889v-2.691c0-0.724-0.314-1.084-0.973-1.084-0.569-0.025-1.053 0.414-1.079 0.984-3e-3 0.053-1e-3 0.105 5e-3 0.157v2.634h-0.89v-4.502z"/><path d="m69.16 13.424c0-0.811 0.604-1.277 1.676-1.344l1.219-0.07v-0.389c0-0.476-0.314-0.744-0.922-0.744-0.496 0-0.84 0.182-0.938 0.5h-0.861c0.092-0.773 0.818-1.269 1.84-1.269 1.129 0 1.766 0.562 1.766 1.513v3.076h-0.855v-0.633h-0.07c-0.29 0.463-0.807 0.732-1.352 0.707-0.748 0.078-1.416-0.465-1.494-1.212-6e-3 -0.044-9e-3 -0.089-9e-3 -0.135zm2.895-0.385v-0.376l-1.1 0.07c-0.619 0.042-0.9 0.253-0.9 0.649 0 0.405 0.352 0.641 0.834 0.641 0.584 0.06 1.104-0.365 1.164-0.949 0-0.011 2e-3 -0.023 2e-3 -0.035z"/></g></svg>