<?xml version="1.0" encoding="utf-8"?>
<!-- Generator: Adobe Illustrator 15.0.0, SVG Export Plug-In . SVG Version: 6.00 Build 0)  -->
<!DOCTYPE svg PUBLIC "-//W3C//DTD SVG 1.1//EN" "http://www.w3.org/Graphics/SVG/1.1/DTD/svg11.dtd">
<svg version="1.1" id="Layer_1" xmlns="http://www.w3.org/2000/svg" xmlns:xlink="http://www.w3.org/1999/xlink" x="0px" y="0px"
	 width="200px" height="45px" viewBox="0 0 200 45" enable-background="new 0 0 200 45" xml:space="preserve">
<rect fill="#9A9A99" width="200" height="45"/>
<g enable-background="new    ">
	<path fill="#FFFFFF" d="M20.384,20.031c-0.771,0-1.367,0.289-1.79,0.868s-0.634,1.387-0.634,2.421c0,2.154,0.808,3.23,2.424,3.23
		c0.678,0,1.5-0.169,2.464-0.509v1.718c-0.792,0.33-1.678,0.495-2.655,0.495c-1.405,0-2.479-0.426-3.224-1.278
		c-0.744-0.852-1.116-2.075-1.116-3.669c0-1.004,0.183-1.884,0.548-2.639c0.365-0.756,0.891-1.335,1.575-1.737
		c0.685-0.403,1.487-0.604,2.408-0.604c0.938,0,1.88,0.227,2.827,0.68l-0.66,1.665c-0.361-0.172-0.725-0.321-1.09-0.449
		C21.095,20.095,20.736,20.031,20.384,20.031z"/>
	<path fill="#FFFFFF" d="M33.667,23.281c0,1.599-0.396,2.827-1.189,3.686c-0.792,0.859-1.929,1.288-3.408,1.288
		c-1.48,0-2.616-0.429-3.409-1.288c-0.792-0.858-1.189-2.092-1.189-3.699s0.397-2.835,1.192-3.683s1.934-1.271,3.418-1.271
		c1.484,0,2.619,0.428,3.405,1.281C33.274,20.449,33.667,21.679,33.667,23.281z M26.62,23.281c0,1.079,0.205,1.892,0.614,2.438
		c0.409,0.546,1.021,0.819,1.836,0.819c1.633,0,2.451-1.086,2.451-3.257c0-2.176-0.812-3.264-2.438-3.264
		c-0.815,0-1.429,0.274-1.843,0.823C26.826,21.389,26.62,22.202,26.62,23.281z"/>
	<path fill="#FFFFFF" d="M44.237,28.123h-2.603l-4.201-7.306h-0.059c0.083,1.29,0.125,2.211,0.125,2.761v4.545h-1.83v-9.657h2.583
		l4.194,7.233h0.046c-0.066-1.256-0.099-2.143-0.099-2.662v-4.571h1.843V28.123z"/>
	<path fill="#FFFFFF" d="M52.368,25.441c0,0.872-0.313,1.559-0.941,2.061c-0.627,0.502-1.5,0.753-2.619,0.753
		c-1.03,0-1.942-0.193-2.734-0.581v-1.902c0.651,0.291,1.203,0.495,1.654,0.614c0.452,0.119,0.864,0.179,1.239,0.179
		c0.449,0,0.794-0.086,1.034-0.258c0.24-0.172,0.36-0.427,0.36-0.767c0-0.189-0.053-0.357-0.159-0.505
		c-0.106-0.147-0.261-0.29-0.466-0.427c-0.205-0.136-0.622-0.354-1.252-0.653c-0.59-0.277-1.033-0.544-1.328-0.8
		c-0.295-0.255-0.531-0.553-0.707-0.892c-0.176-0.339-0.264-0.735-0.264-1.188c0-0.854,0.29-1.526,0.869-2.015
		c0.579-0.489,1.379-0.733,2.401-0.733c0.502,0,0.981,0.06,1.437,0.178c0.456,0.119,0.932,0.287,1.43,0.502l-0.66,1.593
		c-0.516-0.212-0.941-0.359-1.278-0.443c-0.337-0.083-0.668-0.125-0.994-0.125c-0.388,0-0.685,0.09-0.892,0.271
		c-0.207,0.181-0.311,0.416-0.311,0.707c0,0.181,0.042,0.338,0.125,0.473c0.083,0.134,0.217,0.264,0.399,0.39
		c0.183,0.125,0.615,0.351,1.298,0.677c0.902,0.432,1.521,0.864,1.856,1.298C52.201,24.279,52.368,24.812,52.368,25.441z"/>
	<path fill="#FFFFFF" d="M61.979,18.466v6.249c0,0.713-0.16,1.339-0.479,1.876s-0.781,0.949-1.384,1.235
		c-0.604,0.286-1.317,0.429-2.14,0.429c-1.242,0-2.207-0.317-2.894-0.954s-1.03-1.507-1.03-2.612v-6.223h2.041v5.912
		c0,0.744,0.15,1.29,0.449,1.638c0.299,0.349,0.795,0.522,1.486,0.522c0.669,0,1.155-0.176,1.457-0.525
		c0.302-0.351,0.453-0.899,0.453-1.648v-5.898H61.979z"/>
	<path fill="#FFFFFF" d="M64.344,28.123v-9.657h2.048v7.966h3.917v1.691H64.344z"/>
	<path fill="#FFFFFF" d="M75.712,28.123h-2.048V20.17h-2.622v-1.704h7.292v1.704h-2.623V28.123z"/>
	<path fill="#FFFFFF" d="M85.383,28.123h-5.562v-9.657h5.562v1.678h-3.514v2.12h3.27v1.678h-3.27v2.49h3.514V28.123z"/>
	<path fill="#FFFFFF" d="M86.585,25.322v-1.651h3.547v1.651H86.585z"/>
	<path fill="#FFFFFF" d="M100.318,28.123h-2.603l-4.201-7.306h-0.059c0.083,1.29,0.125,2.211,0.125,2.761v4.545h-1.83v-9.657h2.583
		l4.194,7.233h0.046c-0.066-1.256-0.099-2.143-0.099-2.662v-4.571h1.843V28.123z"/>
	<path fill="#FFFFFF" d="M111.515,23.281c0,1.599-0.396,2.827-1.188,3.686c-0.793,0.859-1.93,1.288-3.408,1.288
		c-1.48,0-2.617-0.429-3.409-1.288c-0.792-0.858-1.188-2.092-1.188-3.699s0.396-2.835,1.191-3.683s1.935-1.271,3.419-1.271
		c1.483,0,2.619,0.428,3.405,1.281C111.121,20.449,111.515,21.679,111.515,23.281z M104.467,23.281c0,1.079,0.205,1.892,0.614,2.438
		s1.021,0.819,1.837,0.819c1.633,0,2.45-1.086,2.45-3.257c0-2.176-0.812-3.264-2.438-3.264c-0.815,0-1.429,0.274-1.843,0.823
		C104.674,21.389,104.467,22.202,104.467,23.281z"/>
	<path fill="#FFFFFF" d="M119.217,25.441c0,0.872-0.313,1.559-0.941,2.061c-0.627,0.502-1.5,0.753-2.619,0.753
		c-1.03,0-1.941-0.193-2.734-0.581v-1.902c0.651,0.291,1.203,0.495,1.654,0.614s0.864,0.179,1.238,0.179
		c0.449,0,0.795-0.086,1.034-0.258c0.24-0.172,0.36-0.427,0.36-0.767c0-0.189-0.053-0.357-0.158-0.505
		c-0.106-0.147-0.262-0.29-0.467-0.427c-0.204-0.136-0.621-0.354-1.252-0.653c-0.59-0.277-1.032-0.544-1.327-0.8
		c-0.295-0.255-0.53-0.553-0.706-0.892c-0.177-0.339-0.265-0.735-0.265-1.188c0-0.854,0.29-1.526,0.868-2.015
		c0.579-0.489,1.38-0.733,2.401-0.733c0.502,0,0.981,0.06,1.437,0.178c0.456,0.119,0.933,0.287,1.43,0.502l-0.66,1.593
		c-0.516-0.212-0.941-0.359-1.277-0.443c-0.338-0.083-0.669-0.125-0.994-0.125c-0.389,0-0.686,0.09-0.893,0.271
		s-0.311,0.416-0.311,0.707c0,0.181,0.042,0.338,0.126,0.473c0.083,0.134,0.217,0.264,0.399,0.39
		c0.183,0.125,0.615,0.351,1.299,0.677c0.902,0.432,1.521,0.864,1.855,1.298C119.049,24.279,119.217,24.812,119.217,25.441z"/>
</g>
<g>
	<path fill="#FFFFFF" d="M162.177,13.283L172.969,24.2c0,0,1.041,1.208,2.25,0c0.416-0.459,10.708-11,10.708-11l1.75,0.125
		l-0.167,1.417c0,0-11.166,11.208-11.417,11.416c-2.124,1.709-4.082,0-4.082,0L160.552,14.7v-1.833L162.177,13.283z"/>
	<polygon fill="#FFFFFF" points="168.802,22.575 160.594,31.116 160.511,32.908 162.385,32.449 170.386,24.2 	"/>
	<polygon fill="#FFFFFF" points="179.094,22.575 187.302,31.116 187.385,32.908 185.51,32.449 177.51,24.2 	"/>
	<path fill="#FFFFFF" d="M158.844,11.45v22.875h30.25V11.45H158.844z M186.969,32.241h-26V13.533h26V32.241z"/>
</g>
</svg>
