<?xml version="1.0" encoding="utf-8"?>
<!-- Generator: Adobe Illustrator 15.0.0, SVG Export Plug-In . SVG Version: 6.00 Build 0)  -->
<!DOCTYPE svg PUBLIC "-//W3C//DTD SVG 1.1//EN" "http://www.w3.org/Graphics/SVG/1.1/DTD/svg11.dtd">
<svg version="1.1" id="Layer_1" xmlns="http://www.w3.org/2000/svg" xmlns:xlink="http://www.w3.org/1999/xlink" x="0px" y="0px"
	 width="200px" height="45px" viewBox="0 0 200 45" enable-background="new 0 0 200 45" xml:space="preserve">
<rect fill="#9A9A99" width="200" height="45"/>
<path fill="#FFFFFF" d="M183.738,22.501l5.648-5.648c0.221-0.222,0.221-0.585,0-0.806l-2.384-2.383
	c-0.221-0.221-0.583-0.221-0.805,0l-5.65,5.649l-5.651-5.652c-0.224-0.221-0.584-0.221-0.806,0l-2.383,2.384
	c-0.224,0.22-0.224,0.582,0,0.806l5.651,5.651l-5.649,5.648c-0.22,0.222-0.22,0.584,0,0.807l2.384,2.383
	c0.223,0.221,0.586,0.221,0.807,0l5.647-5.648l5.646,5.646c0.222,0.223,0.584,0.223,0.807,0l2.385-2.384
	c0.221-0.222,0.221-0.583,0-0.808L183.738,22.501z"/>
<g enable-background="new    ">
	<path fill="#FFFFFF" d="M18.954,21.478c0,1.04-0.325,1.834-0.975,2.385c-0.649,0.551-1.573,0.826-2.771,0.826H14.33v3.435h-2.048
		v-9.657h3.085c1.171,0,2.062,0.252,2.672,0.756C18.648,19.727,18.954,20.479,18.954,21.478z M14.33,23.011h0.674
		c0.629,0,1.101-0.125,1.414-0.374c0.312-0.248,0.469-0.61,0.469-1.086c0-0.48-0.131-0.835-0.393-1.063
		c-0.262-0.229-0.672-0.344-1.232-0.344H14.33V23.011z"/>
	<path fill="#FFFFFF" d="M22.013,24.417v3.706h-2.048v-9.657h2.814c1.312,0,2.283,0.238,2.913,0.717
		c0.63,0.478,0.945,1.203,0.945,2.177c0,0.567-0.156,1.073-0.469,1.516c-0.312,0.442-0.755,0.789-1.328,1.04
		c1.453,2.171,2.4,3.574,2.84,4.208h-2.272l-2.306-3.706H22.013z M22.013,22.753h0.661c0.647,0,1.125-0.108,1.433-0.324
		c0.309-0.216,0.462-0.555,0.462-1.017c0-0.458-0.157-0.784-0.472-0.978c-0.315-0.194-0.803-0.291-1.463-0.291h-0.621V22.753z"/>
	<path fill="#FFFFFF" d="M36.85,23.281c0,1.599-0.396,2.827-1.189,3.686c-0.792,0.859-1.929,1.288-3.408,1.288
		c-1.48,0-2.616-0.429-3.409-1.288c-0.792-0.858-1.189-2.092-1.189-3.699s0.397-2.835,1.192-3.683s1.934-1.271,3.418-1.271
		c1.484,0,2.619,0.428,3.405,1.281C36.457,20.449,36.85,21.679,36.85,23.281z M29.802,23.281c0,1.079,0.205,1.892,0.614,2.438
		c0.409,0.546,1.021,0.819,1.836,0.819c1.633,0,2.451-1.086,2.451-3.257c0-2.176-0.812-3.264-2.438-3.264
		c-0.815,0-1.429,0.274-1.843,0.823C30.008,21.389,29.802,22.202,29.802,23.281z"/>
	<path fill="#FFFFFF" d="M46.052,23.202c0,1.59-0.453,2.807-1.357,3.652s-2.212,1.269-3.92,1.269H38.04v-9.657h3.032
		c1.576,0,2.801,0.416,3.672,1.248C45.616,20.547,46.052,21.709,46.052,23.202z M43.925,23.255c0-2.074-0.916-3.111-2.748-3.111
		h-1.09v6.288h0.878C42.939,26.432,43.925,25.373,43.925,23.255z"/>
	<path fill="#FFFFFF" d="M55.103,18.466v6.249c0,0.713-0.16,1.339-0.479,1.876s-0.781,0.949-1.384,1.235
		c-0.604,0.286-1.317,0.429-2.14,0.429c-1.242,0-2.207-0.317-2.894-0.954s-1.03-1.507-1.03-2.612v-6.223h2.041v5.912
		c0,0.744,0.15,1.29,0.449,1.638c0.299,0.349,0.795,0.522,1.486,0.522c0.669,0,1.155-0.176,1.457-0.525
		c0.302-0.351,0.453-0.899,0.453-1.648v-5.898H55.103z"/>
	<path fill="#FFFFFF" d="M60.381,28.123h-2.048V20.17h-2.622v-1.704h7.292v1.704h-2.623V28.123z"/>
	<path fill="#FFFFFF" d="M72.444,23.281c0,1.599-0.396,2.827-1.189,3.686c-0.792,0.859-1.929,1.288-3.408,1.288
		c-1.48,0-2.616-0.429-3.409-1.288c-0.792-0.858-1.189-2.092-1.189-3.699s0.397-2.835,1.192-3.683s1.934-1.271,3.418-1.271
		c1.484,0,2.619,0.428,3.405,1.281C72.051,20.449,72.444,21.679,72.444,23.281z M65.396,23.281c0,1.079,0.205,1.892,0.614,2.438
		c0.409,0.546,1.021,0.819,1.836,0.819c1.633,0,2.451-1.086,2.451-3.257c0-2.176-0.812-3.264-2.438-3.264
		c-0.815,0-1.429,0.274-1.843,0.823C65.603,21.389,65.396,22.202,65.396,23.281z"/>
	<path fill="#FFFFFF" d="M76.336,28.123v-9.657h2.048v9.657H76.336z"/>
	<path fill="#FFFFFF" d="M88.57,28.123h-2.603l-4.201-7.306h-0.059c0.083,1.29,0.125,2.211,0.125,2.761v4.545h-1.83v-9.657h2.583
		l4.194,7.233h0.046c-0.066-1.256-0.099-2.143-0.099-2.662v-4.571h1.843V28.123z"/>
	<path fill="#FFFFFF" d="M98.202,23.202c0,1.59-0.453,2.807-1.357,3.652s-2.212,1.269-3.92,1.269h-2.735v-9.657h3.032
		c1.576,0,2.801,0.416,3.672,1.248C97.766,20.547,98.202,21.709,98.202,23.202z M96.075,23.255c0-2.074-0.916-3.111-2.748-3.111
		h-1.09v6.288h0.878C95.089,26.432,96.075,25.373,96.075,23.255z"/>
	<path fill="#FFFFFF" d="M99.392,28.123v-9.657h2.047v9.657H99.392z"/>
	<path fill="#FFFFFF" d="M108.76,25.441c0,0.872-0.313,1.559-0.941,2.061c-0.627,0.502-1.5,0.753-2.619,0.753
		c-1.03,0-1.941-0.193-2.734-0.581v-1.902c0.651,0.291,1.203,0.495,1.654,0.614s0.864,0.179,1.238,0.179
		c0.449,0,0.795-0.086,1.034-0.258c0.24-0.172,0.36-0.427,0.36-0.767c0-0.189-0.053-0.357-0.158-0.505
		c-0.106-0.147-0.262-0.29-0.467-0.427c-0.204-0.136-0.621-0.354-1.252-0.653c-0.59-0.277-1.032-0.544-1.327-0.8
		c-0.295-0.255-0.53-0.553-0.706-0.892c-0.177-0.339-0.265-0.735-0.265-1.188c0-0.854,0.29-1.526,0.868-2.015
		c0.579-0.489,1.38-0.733,2.401-0.733c0.502,0,0.981,0.06,1.437,0.178c0.456,0.119,0.933,0.287,1.43,0.502l-0.66,1.593
		c-0.516-0.212-0.941-0.359-1.277-0.443c-0.338-0.083-0.669-0.125-0.994-0.125c-0.389,0-0.686,0.09-0.893,0.271
		s-0.311,0.416-0.311,0.707c0,0.181,0.042,0.338,0.126,0.473c0.083,0.134,0.217,0.264,0.399,0.39
		c0.183,0.125,0.615,0.351,1.299,0.677c0.902,0.432,1.521,0.864,1.855,1.298C108.592,24.279,108.76,24.812,108.76,25.441z"/>
	<path fill="#FFFFFF" d="M116.37,21.478c0,1.04-0.325,1.834-0.975,2.385s-1.573,0.826-2.771,0.826h-0.879v3.435h-2.048v-9.657h3.085
		c1.172,0,2.062,0.252,2.672,0.756C116.064,19.727,116.37,20.479,116.37,21.478z M111.746,23.011h0.674
		c0.629,0,1.101-0.125,1.414-0.374c0.312-0.248,0.469-0.61,0.469-1.086c0-0.48-0.131-0.835-0.394-1.063
		c-0.262-0.229-0.673-0.344-1.231-0.344h-0.932V23.011z"/>
	<path fill="#FFFFFF" d="M126.146,23.281c0,1.599-0.396,2.827-1.188,3.686c-0.792,0.859-1.929,1.288-3.408,1.288
		s-2.616-0.429-3.409-1.288c-0.792-0.858-1.188-2.092-1.188-3.699s0.397-2.835,1.192-3.683s1.934-1.271,3.418-1.271
		s2.619,0.428,3.405,1.281C125.754,20.449,126.146,21.679,126.146,23.281z M119.1,23.281c0,1.079,0.204,1.892,0.613,2.438
		c0.41,0.546,1.021,0.819,1.837,0.819c1.634,0,2.45-1.086,2.45-3.257c0-2.176-0.812-3.264-2.438-3.264
		c-0.814,0-1.429,0.274-1.843,0.823C119.306,21.389,119.1,22.202,119.1,23.281z"/>
	<path fill="#FFFFFF" d="M135.904,28.123h-2.603l-4.201-7.306h-0.06c0.084,1.29,0.126,2.211,0.126,2.761v4.545h-1.83v-9.657h2.583
		l4.194,7.233h0.046c-0.065-1.256-0.099-2.143-0.099-2.662v-4.571h1.843V28.123z"/>
	<path fill="#FFFFFF" d="M137.411,17.692v-0.178c0.757-0.881,1.274-1.544,1.552-1.988h2.26v0.139
		c-0.229,0.229-0.619,0.569-1.172,1.021s-0.986,0.787-1.299,1.007H137.411z M137.523,28.123v-9.657h2.048v9.657H137.523z"/>
	<path fill="#FFFFFF" d="M146.699,18.466h2.068l-3.283,9.657h-2.232l-3.277-9.657h2.068l1.816,5.747
		c0.102,0.339,0.205,0.734,0.313,1.186s0.175,0.765,0.202,0.941c0.048-0.405,0.213-1.114,0.494-2.127L146.699,18.466z"/>
	<path fill="#FFFFFF" d="M154.732,28.123h-5.562v-9.657h5.562v1.678h-3.514v2.12h3.27v1.678h-3.27v2.49h3.514V28.123z"/>
	<path fill="#FFFFFF" d="M155.936,28.123v-9.657h2.049v7.966h3.916v1.691H155.936z"/>
</g>
</svg>
