<?xml version="1.0" encoding="utf-8"?>
<!-- Generator: Adobe Illustrator 15.0.0, SVG Export Plug-In . SVG Version: 6.00 Build 0)  -->
<!DOCTYPE svg PUBLIC "-//W3C//DTD SVG 1.1//EN" "http://www.w3.org/Graphics/SVG/1.1/DTD/svg11.dtd">
<svg version="1.1" id="Layer_1" xmlns="http://www.w3.org/2000/svg" xmlns:xlink="http://www.w3.org/1999/xlink" x="0px" y="0px"
	 width="200px" height="45px" viewBox="0 0 200 45" enable-background="new 0 0 200 45" xml:space="preserve">
<g>
	<rect fill="#00D500" width="200" height="45"/>
	<g enable-background="new    ">
		<path fill="#FFFFFF" d="M23.013,17.263c-1.242,0-2.203,0.466-2.884,1.399c-0.681,0.933-1.021,2.232-1.021,3.9
			c0,3.469,1.302,5.203,3.906,5.203c1.092,0,2.416-0.272,3.969-0.819v2.768c-1.277,0.532-2.703,0.798-4.278,0.798
			c-2.263,0-3.995-0.687-5.193-2.06c-1.199-1.372-1.798-3.343-1.798-5.911c0-1.618,0.294-3.035,0.883-4.252
			c0.588-1.217,1.435-2.149,2.538-2.799c1.103-0.649,2.396-0.974,3.879-0.974c1.511,0,3.029,0.365,4.555,1.097l-1.064,2.682
			c-0.582-0.277-1.167-0.519-1.756-0.724C24.159,17.365,23.581,17.263,23.013,17.263z"/>
		<path fill="#FFFFFF" d="M44.414,22.498c0,2.575-0.639,4.555-1.916,5.938s-3.107,2.075-5.491,2.075s-4.214-0.691-5.491-2.075
			c-1.277-1.384-1.916-3.37-1.916-5.96c0-2.589,0.64-4.566,1.921-5.933c1.28-1.365,3.116-2.049,5.507-2.049
			c2.391,0,4.22,0.688,5.486,2.064C43.781,17.937,44.414,19.916,44.414,22.498z M33.059,22.498c0,1.738,0.33,3.048,0.99,3.927
			c0.66,0.88,1.646,1.32,2.958,1.32c2.632,0,3.948-1.749,3.948-5.247c0-3.505-1.309-5.257-3.927-5.257
			c-1.312,0-2.302,0.441-2.969,1.325C33.393,19.449,33.059,20.76,33.059,22.498z"/>
		<path fill="#FFFFFF" d="M54.226,30.299L50.48,18.093h-0.096c0.135,2.482,0.202,4.14,0.202,4.97v7.236h-2.948V14.74h4.491
			l3.682,11.897h0.064l3.905-11.897h4.491v15.559h-3.076v-7.364c0-0.348,0.005-0.748,0.016-1.202c0.01-0.454,0.059-1.66,0.144-3.619
			h-0.096l-4.012,12.186H54.226z"/>
		<path fill="#FFFFFF" d="M78.937,19.593c0,1.675-0.523,2.955-1.57,3.842s-2.535,1.33-4.464,1.33h-1.415v5.534h-3.299V14.74h4.97
			c1.887,0,3.322,0.406,4.305,1.219C78.446,16.771,78.937,17.982,78.937,19.593z M71.488,22.062h1.085
			c1.014,0,1.773-0.2,2.277-0.601c0.503-0.401,0.755-0.984,0.755-1.751c0-0.773-0.211-1.345-0.633-1.713
			c-0.422-0.369-1.084-0.554-1.985-0.554h-1.5V22.062z"/>
		<path fill="#FFFFFF" d="M85.173,24.329v5.97h-3.299V14.74h4.534c2.114,0,3.678,0.385,4.693,1.154
			c1.015,0.771,1.522,1.939,1.522,3.507c0,0.915-0.252,1.729-0.755,2.442c-0.504,0.713-1.217,1.271-2.139,1.676
			c2.341,3.498,3.867,5.758,4.576,6.779h-3.661l-3.714-5.97H85.173z M85.173,21.646h1.064c1.043,0,1.812-0.174,2.31-0.521
			c0.497-0.347,0.745-0.894,0.745-1.639c0-0.737-0.253-1.263-0.761-1.575c-0.507-0.312-1.293-0.468-2.357-0.468h-1V21.646z"/>
		<path fill="#FFFFFF" d="M105.787,30.299l-1.129-3.703h-5.671l-1.128,3.703h-3.554l5.491-15.622h4.033l5.514,15.622H105.787z
			 M103.871,23.828c-1.043-3.355-1.63-5.253-1.761-5.693c-0.132-0.439-0.226-0.787-0.282-1.043
			c-0.234,0.908-0.904,3.154-2.011,6.736H103.871z"/>
		<path fill="#FFFFFF" d="M114.599,24.329v5.97h-3.3V14.74h4.534c2.114,0,3.679,0.385,4.692,1.154
			c1.016,0.771,1.522,1.939,1.522,3.507c0,0.915-0.252,1.729-0.755,2.442c-0.504,0.713-1.217,1.271-2.14,1.676
			c2.341,3.498,3.866,5.758,4.576,6.779h-3.661l-3.714-5.97H114.599z M114.599,21.646h1.063c1.043,0,1.812-0.174,2.311-0.521
			c0.496-0.347,0.744-0.894,0.744-1.639c0-0.737-0.254-1.263-0.761-1.575c-0.507-0.312-1.293-0.468-2.357-0.468h-1V21.646z"/>
	</g>
	<g>
		<path fill="#FFFFFF" d="M188.659,15.133l-1.437,7.963c0,0-15.701,2.799-16.211,2.869c-1.447,0.071-2.261,2.26,0.215,2.225
			c0.899,0.035,16.355,0,16.355,0l-0.432,2.008c0,0-15.883-0.025-16.213,0c-4.828-0.41-3.625-5.223-1.004-5.953
			c0.129-0.207-3.013-11.406-3.013-11.406h-2.296l-0.574-2.009h4.592l1.147,4.376L188.659,15.133z"/>
		<circle fill="#FFFFFF" cx="173.377" cy="32.911" r="1.75"/>
		<circle fill="#FFFFFF" cx="184.314" cy="32.911" r="1.75"/>
	</g>
</g>
</svg>
