<?xml version="1.0" encoding="utf-8"?>
<!-- Generator: Adobe Illustrator 15.0.0, SVG Export Plug-In . SVG Version: 6.00 Build 0)  -->
<!DOCTYPE svg PUBLIC "-//W3C//DTD SVG 1.1//EN" "http://www.w3.org/Graphics/SVG/1.1/DTD/svg11.dtd">
<svg version="1.1" id="Layer_1" xmlns="http://www.w3.org/2000/svg" xmlns:xlink="http://www.w3.org/1999/xlink" x="0px" y="0px"
	 width="200px" height="45px" viewBox="0 0 200 45" enable-background="new 0 0 200 45" xml:space="preserve">
<rect fill="#9A9A99" width="200" height="45"/>
<g enable-background="new    ">
	<path fill="#FFFFFF" d="M25.844,28.123h-5.562v-9.657h5.562v1.678H22.33v2.12h3.27v1.677h-3.27v2.49h3.514V28.123z"/>
	<path fill="#FFFFFF" d="M33.559,25.441c0,0.871-0.313,1.559-0.941,2.061c-0.627,0.502-1.5,0.753-2.619,0.753
		c-1.03,0-1.942-0.192-2.734-0.581v-1.902c0.651,0.291,1.203,0.496,1.654,0.615c0.452,0.118,0.864,0.178,1.239,0.178
		c0.449,0,0.794-0.086,1.034-0.258c0.24-0.172,0.36-0.427,0.36-0.767c0-0.188-0.053-0.356-0.159-0.505
		c-0.106-0.146-0.261-0.29-0.466-0.428c-0.205-0.135-0.622-0.354-1.252-0.652c-0.59-0.277-1.033-0.544-1.328-0.801
		c-0.295-0.254-0.531-0.552-0.707-0.891c-0.176-0.339-0.264-0.735-0.264-1.188c0-0.854,0.29-1.526,0.869-2.015
		c0.579-0.489,1.379-0.733,2.401-0.733c0.502,0,0.981,0.06,1.437,0.178c0.456,0.119,0.932,0.287,1.43,0.502l-0.66,1.593
		c-0.516-0.212-0.941-0.359-1.278-0.443c-0.337-0.083-0.668-0.125-0.994-0.125c-0.388,0-0.685,0.09-0.892,0.271
		c-0.207,0.181-0.311,0.416-0.311,0.707c0,0.181,0.042,0.338,0.125,0.473c0.083,0.134,0.217,0.264,0.399,0.39
		c0.183,0.125,0.615,0.351,1.298,0.677c0.902,0.432,1.521,0.864,1.856,1.298C33.392,24.279,33.559,24.812,33.559,25.441z"/>
	<path fill="#FFFFFF" d="M39.412,20.031c-0.771,0-1.367,0.289-1.79,0.868s-0.634,1.387-0.634,2.421c0,2.154,0.808,3.229,2.424,3.229
		c0.678,0,1.5-0.169,2.464-0.509v1.718c-0.792,0.33-1.678,0.495-2.655,0.495c-1.405,0-2.479-0.426-3.224-1.277
		c-0.744-0.853-1.116-2.076-1.116-3.67c0-1.003,0.183-1.884,0.548-2.639c0.365-0.756,0.891-1.335,1.575-1.737
		c0.685-0.403,1.487-0.604,2.408-0.604c0.938,0,1.88,0.227,2.827,0.68l-0.66,1.665c-0.361-0.172-0.725-0.321-1.09-0.449
		C40.123,20.095,39.764,20.031,39.412,20.031z"/>
	<path fill="#FFFFFF" d="M52.695,23.281c0,1.599-0.396,2.826-1.189,3.686c-0.792,0.859-1.929,1.288-3.408,1.288
		c-1.48,0-2.616-0.429-3.409-1.288c-0.792-0.857-1.189-2.092-1.189-3.699c0-1.606,0.397-2.834,1.192-3.683s1.934-1.271,3.418-1.271
		c1.484,0,2.619,0.428,3.405,1.281C52.302,20.449,52.695,21.679,52.695,23.281z M45.647,23.281c0,1.078,0.205,1.892,0.614,2.438
		c0.409,0.547,1.021,0.819,1.836,0.819c1.633,0,2.451-1.086,2.451-3.257c0-2.176-0.812-3.264-2.438-3.264
		c-0.815,0-1.429,0.274-1.843,0.823C45.854,21.389,45.647,22.202,45.647,23.281z"/>
	<path fill="#FFFFFF" d="M54.697,28.123v-9.657h2.048v7.966h3.917v1.691H54.697z"/>
	<path fill="#FFFFFF" d="M70.253,28.123h-2.041v-4.168h-3.825v4.168H62.34v-9.657h2.048v3.785h3.825v-3.785h2.041L70.253,28.123
		L70.253,28.123z"/>
	<path fill="#FFFFFF" d="M78.603,28.123l-0.7-2.299h-3.521l-0.7,2.299h-2.206l3.409-9.697h2.503l3.421,9.697H78.603z M77.414,24.105
		c-0.647-2.083-1.012-3.26-1.093-3.533c-0.082-0.273-0.14-0.489-0.175-0.646c-0.146,0.562-0.562,1.957-1.249,4.181h2.517V24.105z"/>
	<path fill="#FFFFFF" d="M94.304,23.281c0,1.599-0.396,2.826-1.189,3.686c-0.792,0.859-1.929,1.288-3.408,1.288
		c-1.48,0-2.616-0.429-3.409-1.288c-0.792-0.857-1.189-2.092-1.189-3.699c0-1.606,0.397-2.834,1.192-3.683
		c0.795-0.848,1.934-1.271,3.418-1.271c1.484,0,2.619,0.428,3.405,1.281C93.911,20.449,94.304,21.679,94.304,23.281z M87.256,23.281
		c0,1.078,0.205,1.892,0.614,2.438c0.409,0.547,1.021,0.819,1.836,0.819c1.633,0,2.451-1.086,2.451-3.257
		c0-2.176-0.812-3.264-2.438-3.264c-0.815,0-1.429,0.274-1.843,0.823C87.463,21.389,87.256,22.202,87.256,23.281z"/>
	<path fill="#FFFFFF" d="M102.979,21.478c0,1.04-0.326,1.834-0.976,2.385s-1.573,0.826-2.771,0.826h-0.878v3.435h-2.048v-9.657
		h3.085c1.171,0,2.062,0.252,2.671,0.756S102.979,20.479,102.979,21.478z M98.354,23.012h0.674c0.629,0,1.101-0.125,1.414-0.375
		c0.313-0.248,0.469-0.61,0.469-1.086c0-0.48-0.132-0.835-0.394-1.063c-0.263-0.229-0.672-0.344-1.232-0.344h-0.931V23.012z"/>
	<path fill="#FFFFFF" d="M108.902,20.031c-0.771,0-1.367,0.289-1.791,0.868c-0.422,0.579-0.633,1.387-0.633,2.421
		c0,2.154,0.808,3.229,2.424,3.229c0.678,0,1.5-0.169,2.464-0.509v1.718c-0.792,0.33-1.679,0.495-2.655,0.495
		c-1.404,0-2.479-0.426-3.225-1.277c-0.743-0.853-1.115-2.076-1.115-3.67c0-1.003,0.184-1.884,0.549-2.639
		c0.365-0.756,0.891-1.335,1.574-1.737c0.686-0.403,1.488-0.604,2.408-0.604c0.938,0,1.881,0.227,2.826,0.68l-0.66,1.665
		c-0.36-0.172-0.725-0.321-1.09-0.449S109.255,20.031,108.902,20.031z M109.92,29.773c0,0.563-0.166,0.972-0.499,1.223
		s-0.847,0.377-1.542,0.377c-0.344,0-0.666-0.046-0.965-0.139v-1.109c0.119,0.029,0.279,0.062,0.479,0.092
		c0.201,0.031,0.355,0.047,0.467,0.047c0.316,0,0.476-0.137,0.476-0.41c0-0.365-0.364-0.604-1.097-0.713l0.516-1.018h1.273
		l-0.178,0.402c0.326,0.105,0.586,0.271,0.779,0.492C109.822,29.24,109.92,29.492,109.92,29.773z"/>
	<path fill="#FFFFFF" d="M122.188,23.281c0,1.599-0.396,2.826-1.188,3.686c-0.793,0.859-1.931,1.288-3.408,1.288
		c-1.479,0-2.616-0.429-3.409-1.288c-0.791-0.857-1.188-2.092-1.188-3.699c0-1.606,0.396-2.834,1.191-3.683s1.935-1.271,3.418-1.271
		s2.619,0.428,3.405,1.281C121.793,20.449,122.188,21.679,122.188,23.281z M116.512,16.999c-0.136,0-0.267,0.059-0.393,0.175
		c-0.125,0.117-0.217,0.294-0.273,0.532h-0.984c0.05-0.639,0.23-1.139,0.546-1.5c0.313-0.36,0.731-0.541,1.252-0.541
		c0.18,0,0.356,0.036,0.53,0.108c0.174,0.073,0.347,0.152,0.517,0.238c0.169,0.086,0.336,0.164,0.498,0.234
		c0.163,0.07,0.323,0.105,0.481,0.105c0.137,0,0.269-0.057,0.394-0.172c0.126-0.114,0.217-0.29,0.274-0.528h0.983
		c-0.048,0.639-0.231,1.139-0.552,1.5c-0.318,0.361-0.734,0.541-1.244,0.541c-0.182,0-0.357-0.036-0.532-0.108
		c-0.175-0.073-0.347-0.152-0.516-0.238c-0.169-0.086-0.335-0.165-0.499-0.237C116.832,17.035,116.671,16.999,116.512,16.999z
		 M115.139,23.281c0,1.078,0.205,1.892,0.614,2.438c0.409,0.547,1.021,0.819,1.837,0.819c1.633,0,2.45-1.086,2.45-3.257
		c0-2.176-0.812-3.264-2.438-3.264c-0.814,0-1.429,0.274-1.843,0.823C115.346,21.389,115.139,22.202,115.139,23.281z"/>
	<path fill="#FFFFFF" d="M129.75,28.123h-5.562v-9.657h5.562v1.678h-3.514v2.12h3.27v1.677h-3.27v2.49h3.514V28.123z"/>
	<path fill="#FFFFFF" d="M137.465,25.441c0,0.871-0.312,1.559-0.941,2.061c-0.627,0.502-1.5,0.753-2.619,0.753
		c-1.028,0-1.94-0.192-2.733-0.581v-1.902c0.651,0.291,1.203,0.496,1.654,0.615c0.452,0.118,0.864,0.178,1.239,0.178
		c0.449,0,0.793-0.086,1.033-0.258s0.359-0.427,0.359-0.767c0-0.188-0.053-0.356-0.158-0.505s-0.262-0.29-0.466-0.428
		c-0.204-0.135-0.622-0.354-1.252-0.652c-0.59-0.277-1.032-0.544-1.327-0.801c-0.295-0.254-0.531-0.552-0.707-0.891
		c-0.176-0.339-0.264-0.735-0.264-1.188c0-0.854,0.289-1.526,0.867-2.015c0.58-0.489,1.381-0.733,2.401-0.733
		c0.503,0,0.979,0.06,1.437,0.178c0.457,0.119,0.934,0.287,1.431,0.502l-0.66,1.593c-0.516-0.212-0.94-0.359-1.278-0.443
		c-0.336-0.083-0.668-0.125-0.994-0.125c-0.387,0-0.686,0.09-0.891,0.271c-0.207,0.181-0.312,0.416-0.312,0.707
		c0,0.181,0.042,0.338,0.126,0.473c0.083,0.134,0.217,0.264,0.398,0.39c0.184,0.125,0.614,0.351,1.299,0.677
		c0.901,0.432,1.521,0.864,1.854,1.298C137.298,24.279,137.465,24.812,137.465,25.441z"/>
	<path fill="#FFFFFF" d="M148.643,28.123l-0.701-2.299h-3.521l-0.7,2.299h-2.205l3.408-9.697h2.504l3.42,9.697H148.643z
		 M147.453,24.105c-0.646-2.083-1.012-3.26-1.094-3.533c-0.082-0.273-0.139-0.489-0.174-0.646c-0.146,0.562-0.562,1.957-1.25,4.181
		h2.518V24.105z"/>
	<path fill="#FFFFFF" d="M156.166,20.031c-0.771,0-1.367,0.289-1.791,0.868c-0.422,0.579-0.634,1.387-0.634,2.421
		c0,2.154,0.808,3.229,2.425,3.229c0.678,0,1.499-0.169,2.463-0.509v1.718c-0.792,0.33-1.678,0.495-2.654,0.495
		c-1.404,0-2.479-0.426-3.225-1.277c-0.744-0.853-1.115-2.076-1.115-3.67c0-1.003,0.182-1.884,0.549-2.639
		c0.364-0.756,0.891-1.335,1.574-1.737c0.686-0.403,1.487-0.604,2.408-0.604c0.938,0,1.88,0.227,2.826,0.68l-0.66,1.665
		c-0.361-0.172-0.725-0.321-1.09-0.449S156.518,20.031,156.166,20.031z"/>
	<path fill="#FFFFFF" d="M160.684,28.123v-9.657h2.049v9.657H160.684z"/>
	<path fill="#FFFFFF" d="M169.252,28.123l-2.326-7.576h-0.059c0.084,1.541,0.125,2.569,0.125,3.084v4.492h-1.83v-9.657h2.788
		l2.286,7.386h0.039l2.424-7.386h2.787v9.657h-1.908v-4.57c0-0.217,0.004-0.466,0.01-0.747c0.008-0.282,0.037-1.03,0.09-2.246
		h-0.061l-2.49,7.563H169.252z"/>
	<path fill="#FFFFFF" d="M183.83,28.123l-0.7-2.299h-3.521l-0.701,2.299h-2.205l3.408-9.697h2.504l3.421,9.697H183.83z
		 M182.641,24.105c-0.646-2.083-1.012-3.26-1.093-3.533c-0.081-0.273-0.14-0.489-0.175-0.646c-0.146,0.562-0.562,1.957-1.248,4.181
		h2.516V24.105z"/>
</g>
</svg>
