<?xml version="1.0" encoding="iso-8859-1"?>
<svg version="1.1" xmlns="http://www.w3.org/2000/svg" xmlns:xlink="http://www.w3.org/1999/xlink" xmlns:a="http://ns.adobe.com/AdobeSVGViewerExtensions/3.0/" x="0px" y="0px" width="200px" height="50px" viewBox="0 0 200 50" enable-background="new 0 0 200 50" xml:space="preserve">
<rect fill="#58B8DD" width="200" height="50"/>
<text transform="matrix(1 0 0 1 58.8555 25.9575)" fill="#FFFFFF" font-family="'Arial'" font-size="20">Selecione</text>
<rect fill="#52ADD1" width="47.167" height="50"/>
<circle fill="#FFFFFF" stroke="#3BBDE0" stroke-width="1.3674" stroke-linecap="round" stroke-linejoin="round" stroke-miterlimit="10" cx="18.514" cy="10.217" r="5.383"/>
<circle display="none" fill="#FFFFFF" stroke="#41B1D8" stroke-linecap="round" stroke-linejoin="round" stroke-miterlimit="10" cx="18.514" cy="10.217" r="3.937"/>
<path display="none" fill="#FFFFFF" d="M33.154,21.163c-1.006,0-1.828,0.821-1.828,1.827v4.334c0,0.33-0.272,0.605-0.605,0.605
	c-0.34,0-0.614-0.275-0.614-0.605V21.24c0-1.012-0.815-1.827-1.827-1.827c-1.006,0-1.825,0.815-1.825,1.827v4.862
	c0,0.335-0.275,0.605-0.607,0.605c-0.34,0-0.615-0.271-0.615-0.605v-7.987c0-1.006-0.815-1.825-1.828-1.825
	c-1.011,0-1.826,0.819-1.826,1.825v7.987c0,0.335-0.273,0.605-0.613,0.605c-0.332,0-0.606-0.271-0.606-0.605V10.548
	c0-1.012-0.821-1.827-1.827-1.827c-1.012,0-1.826,0.814-1.826,1.827v21.649l-2.472-3.382c-0.731-1.124-2.16-1.504-3.208-0.854
	c-1.042,0.658-1.298,2.1-0.577,3.225c0,0,3.981,6.023,5.679,8.601c1.695,2.583,4.446,4.601,9.589,4.601
	c8.512,0,9.273-6.57,9.273-8.535V22.99C34.989,21.984,34.166,21.163,33.154,21.163z"/>
<path fill="#41C6E5" d="M33.154,21.163c-1.006,0-1.828,0.821-1.828,1.827v4.334c0,0.33-0.272,0.605-0.605,0.605
	c-0.34,0-0.614-0.275-0.614-0.605V21.24c0-1.012-0.815-1.827-1.827-1.827c-1.006,0-1.825,0.815-1.825,1.827v4.862
	c0,0.335-0.275,0.605-0.607,0.605c-0.34,0-0.615-0.271-0.615-0.605v-7.987c0-1.006-0.815-1.825-1.828-1.825
	c-1.011,0-1.826,0.819-1.826,1.825v7.987c0,0.335-0.273,0.605-0.613,0.605c-0.332,0-0.606-0.271-0.606-0.605V10.548
	c0-1.012-0.821-1.827-1.827-1.827c-1.012,0-1.826,0.814-1.826,1.827v21.649l-2.472-3.382c-0.731-1.124-2.16-1.504-3.208-0.854
	c-1.042,0.658-1.298,2.1-0.577,3.225c0,0,3.981,6.023,5.679,8.601c1.695,2.583,4.446,4.601,9.589,4.601
	c8.512,0,9.273-6.57,9.273-8.535V22.99C34.989,21.984,34.166,21.163,33.154,21.163z"/>
<text transform="matrix(1 0 0 1 121.6353 41.3867)" fill="#FFFFFF" font-family="'Arial'" font-size="14">as op&#xE7;&#xF5;es</text>
</svg>
