<?xml version="1.0" encoding="utf-8"?>
<!DOCTYPE svg PUBLIC "-//W3C//DTD SVG 1.1//EN" "http://www.w3.org/Graphics/SVG/1.1/DTD/svg11.dtd">
<svg version="1.1" id="Layer_1" xmlns="http://www.w3.org/2000/svg" xmlns:xlink="http://www.w3.org/1999/xlink" x="0px" y="0px"
	 width="227.75px" height="35px" viewBox="0 0 227.75 35" enable-background="new 0 0 227.75 35" xml:space="preserve">
<g>
	<g>
		<g>
			<g>
				<path fill="#1A4366" d="M72.624,28.071c-1.009,0.449-2.64,0.849-4.662,0.849c-4.531,0-7.281-2.85-7.281-7.44
					c0-3.387,1.358-6.611,3.841-8.661c1.835-1.576,4.134-2.428,6.77-2.428c1.998,0,3.412,0.504,3.888,0.879l-0.717,1.791
					c-0.668-0.405-1.945-0.75-3.545-0.75c-1.868,0-3.756,0.717-5.144,2.031c-1.683,1.569-2.745,4.103-2.745,6.821
					c0,3.229,1.464,5.869,5.463,5.869c1.36,0,2.855-0.27,3.84-0.775L72.624,28.071z"/>
				<path fill="#1A4366" d="M90.49,17.749c0,3.12-1.118,6.558-3.255,8.689c-1.595,1.58-3.678,2.509-6.158,2.509
					c-4.633,0-6.827-3.49-6.827-7.3c0-3.183,1.257-6.669,3.442-8.828c1.517-1.496,3.76-2.428,6.026-2.428
					C88.539,10.391,90.49,13.909,90.49,17.749z M79.317,14.068c-1.73,1.736-2.747,4.883-2.747,7.39c0,2.934,1.309,5.622,4.829,5.622
					c1.519,0,2.983-0.665,4.103-1.779c1.68-1.714,2.665-4.937,2.665-7.442c0-2.563-0.824-5.6-4.742-5.6
					C81.827,12.259,80.411,12.95,79.317,14.068z"/>
				<path fill="#1A4366" d="M106.142,28.657l1.273-9.706c0.241-1.712,0.644-4.349,0.985-6.081h-0.104
					c-0.826,1.812-1.809,3.946-2.801,5.783l-5.329,9.896h-1.708l-1.334-9.678c-0.268-2.081-0.453-4.16-0.558-6h-0.051
					c-0.405,1.65-0.962,4.368-1.39,6.081l-2.451,9.706h-2.079l4.663-17.974h2.828l1.413,10.32c0.183,1.518,0.399,3.141,0.426,4.479
					h0.082c0.56-1.338,1.332-2.934,2.104-4.429l5.573-10.37h2.883l-2.296,17.974H106.142z"/>
				<path fill="#1A4366" d="M126.398,28.657l1.286-9.706c0.238-1.712,0.638-4.349,0.983-6.081h-0.107
					c-0.829,1.812-1.81,3.946-2.799,5.783l-5.332,9.896h-1.712l-1.33-9.678c-0.267-2.081-0.453-4.16-0.558-6h-0.054
					c-0.399,1.65-0.959,4.368-1.388,6.081l-2.454,9.706h-2.076l4.663-17.974h2.828l1.412,10.32c0.185,1.518,0.399,3.141,0.424,4.479
					h0.081c0.56-1.338,1.336-2.934,2.107-4.429l5.573-10.37h2.878l-2.291,17.974H126.398z"/>
				<path fill="#1A4366" d="M141.944,20.204h-6.536l-1.224,6.559h7.357l-0.372,1.895h-9.573l3.412-17.974h9.176l-0.372,1.893h-6.938
					l-1.092,5.757h6.533L141.944,20.204z"/>
				<path fill="#1A4366" d="M146.981,10.947c1.092-0.237,2.587-0.393,3.923-0.393c1.786,0,3.325,0.424,4.289,1.305
					c0.826,0.717,1.331,1.759,1.331,2.986c0,2.611-1.997,4.559-4.262,5.197l-0.029,0.054c1.255,0.425,1.865,1.758,1.996,3.623
					c0.193,2.509,0.326,4.216,0.562,4.939H152.5c-0.105-0.377-0.293-2.268-0.425-4.351c-0.134-2.453-1.04-3.491-2.827-3.491h-1.977
					l-1.464,7.842h-2.216L146.981,10.947z M147.619,19.109h1.974c2.802,0,4.61-1.839,4.61-3.995c0-1.924-1.438-2.775-3.463-2.775
					c-0.876,0-1.465,0.079-1.867,0.185L147.619,19.109z"/>
				<path fill="#1A4366" d="M169.563,28.071c-1.015,0.449-2.64,0.849-4.669,0.849c-4.533,0-7.279-2.85-7.279-7.44
					c0-3.387,1.361-6.611,3.845-8.661c1.841-1.576,4.133-2.428,6.771-2.428c1.997,0,3.412,0.504,3.893,0.879l-0.725,1.791
					c-0.665-0.405-1.945-0.75-3.54-0.75c-1.87,0-3.766,0.717-5.149,2.031c-1.677,1.569-2.744,4.103-2.744,6.821
					c0,3.229,1.466,5.869,5.464,5.869c1.358,0,2.854-0.27,3.844-0.775L169.563,28.071z"/>
				<path fill="#1A4366" d="M181.746,20.204h-6.528l-1.229,6.559h7.354l-0.375,1.895h-9.569l3.413-17.974h9.173l-0.373,1.893h-6.929
					l-1.095,5.757h6.53L181.746,20.204z"/>
			</g>
		</g>
		<g>
			<g>
				<g>
					<path fill="#1A4366" d="M47.498,10.348c0,0-5.146,0-5.819,0c-5.282,0-7.046,3.31-7.465,4.331
						c-1.514,4.3,2.037,6.335,2.037,6.335s1.91,1.009,3.128,1.708c1.209,0.699,1.192,2.421,0.243,3.25
						c-3.15,2.322-4.364-1.063-4.585-1.649c-0.215-0.582-0.842-0.231-0.842-0.231s-0.826,0.384-1.583,0.874
						c-0.832,0.535-0.333,1.174-0.333,1.174s2.71,3.701,7.057,2.704c1.467-0.339,7.421-1.7,6.188-7.459
						c-0.653-2.938-4.566-4.035-5.301-4.395c-1.07-0.467-1.504-1.34-1.323-2.278c0.253-1.285,1.102-1.84,2.656-1.84
						c0.901,0,5.567,0,5.567,0L47.498,10.348z"/>
				</g>
				<path fill="#1A4366" d="M22.938,2h-1.142c-0.219,0-0.687,0-1.329,0c-0.944,0-3.295,0-4.795,0c-8.02,0-9.42,6.829-9.42,6.829
					L3.293,27.48c0,0-0.019,0.066-0.022,0.177l-0.153,0.863h0.953c0.02,0,0.037,0.006,0.058,0.006c0.496,0,4.65,0,5.616,0
					c1.199,0,1.361-1.046,1.361-1.046l1.478-9.095c0,0,4.817,0,5.332,0c0.787,0,0.884-0.763,0.884-0.763l0.477-3.02h-6.099
					l0.889-5.646c0,0,0.391-3.415,2.546-3.415c0.679,0,3.969,0,4.768,0c1.011,0,1.073-0.885,1.073-0.885l0.351-1.899
					c0,0,0.009-0.036,0.01-0.088L22.938,2z"/>
				<path fill="#1A4366" d="M61.622,10.348h-0.819c-0.017,0-0.026,0-0.041,0c-0.493,0-14.925,0-15.61,0
					c-0.678,0-0.762,0.674-0.762,0.674l-0.19,1.296c0,0-0.114,0.553,0.678,0.553c0.445,0,3.055,0,3.941,0
					c0.897,0,0.715,0.772,0.715,0.772l-2.188,13.844c0,0-0.009,0.036-0.019,0.084l-0.155,0.933h0.863
					c0.007,0,0.013,0.011,0.013,0.011c0.929,0,3.478,0,4.446,0c0.978,0,1.107-0.929,1.107-0.929l2.195-13.943
					c0,0,0.054-0.772,1.111-0.772c1.037,0,2.519,0,3.395,0c0.87,0,1.046-0.834,1.046-0.834l0.152-0.952c0,0,0.016-0.064,0.016-0.152
					L61.622,10.348z"/>
				<g>
					<g>
						<path fill="#1A4366" d="M31.87,27.387c-0.013-0.125-2.577-14.275-2.613-14.41c-0.078-0.292-0.749-2.95-3.211-2.95
							c-2.109,0-2.803,0.785-3.414,1.648c-0.224,0.311-0.729,1.241-0.729,1.241L14.84,27.462l-0.033,0.059
							c-0.008,0.003-0.008,0.009-0.01,0.022l-0.463,0.891h1.127c0.009,0,0.016,0,0.021,0c0.351,0,0.739,0,1.174,0
							c1.106,0,1.399-0.946,1.399-0.946l0.799-1.727c0,0,0.248-0.571,0.862-0.571c0.451,0,3.992,0,4.711,0
							c0.716,0,0.756,0.492,0.756,0.492l0.268,1.83c0,0,0.106,0.967,0.989,0.967c0.887,0,3.792,0,4.43,0
							C31.821,28.479,31.896,27.6,31.87,27.387z M24.013,22.473c-0.575,0-3.597,0.007-3.597,0.007s2.655-5.541,2.757-5.77
							c0.102-0.281,0.656-0.941,0.845,0.046c0.185,0.989,0.637,4.692,0.637,4.692S24.826,22.473,24.013,22.473z"/>
					</g>
				</g>
			</g>
		</g>
	</g>
	<g>
		<g>
			<g enable-background="new    ">
				<defs>
					<polygon id="SVGID_1_" enable-background="new    " points="183.409,33.638 188.174,1.789 226.888,1.868 222.122,33.717 					
						"/>
				</defs>
				<clipPath id="SVGID_2_">
					<use xlink:href="#SVGID_1_"  overflow="visible"/>
				</clipPath>
				<g clip-path="url(#SVGID_2_)">
					<defs>
						<path id="SVGID_3_" d="M223.009,1.86l-30.965-0.062c-2.14-0.006-4.105,1.57-4.396,3.513l-3.713,24.812
							c-0.291,1.945,1.205,3.519,3.344,3.521l30.966,0.064c2.14,0.006,4.112-1.562,4.403-3.505l3.714-24.814
							C226.652,3.446,225.15,1.864,223.009,1.86"/>
					</defs>
					<clipPath id="SVGID_4_">
						<use xlink:href="#SVGID_3_"  overflow="visible"/>
					</clipPath>
					<g clip-path="url(#SVGID_4_)">
						<g>
							<defs>
								<rect id="SVGID_5_" x="147.189" y="-12.913" width="121.244" height="75.053"/>
							</defs>
							<clipPath id="SVGID_6_">
								<use xlink:href="#SVGID_5_"  overflow="visible"/>
							</clipPath>
							<g clip-path="url(#SVGID_6_)">
								<linearGradient id="SVGID_7_" gradientUnits="userSpaceOnUse" x1="198.335" y1="-19.9814" x2="215.0154" y2="58.5145">
									<stop  offset="0" style="stop-color:#4570B7"/>
									<stop  offset="0.6503" style="stop-color:#578BC9"/>
									<stop  offset="0.8344" style="stop-color:#579FD1"/>
									<stop  offset="1" style="stop-color:#54AFDB"/>
								</linearGradient>
								<rect x="138.174" y="-23.115" fill="url(#SVGID_7_)" width="139.276" height="95.458"/>
								<g>
									<polyline fill="#6695CE" points="227.637,18.048 220.882,26.276 222.144,19.072 227.637,18.048 									"/>
									<polyline fill="#6595CE" points="222.144,19.072 214.627,24.884 220.882,26.276 222.144,19.072 									"/>
									<polygon fill="#6396CF" points="227.643,25.979 220.938,26.19 222.072,32.35 									"/>
									<polygon fill="#6195CF" points="220.938,26.19 214.7,29.925 222.072,32.35 									"/>
									<polyline fill="#6A9AD1" points="214.627,24.884 214.7,29.925 221.052,26.214 214.627,24.884 									"/>
									<polyline fill="#6697D0" points="214.627,24.884 210.034,30.764 214.7,29.925 214.627,24.884 									"/>
									<polyline fill="#6C9BD2" points="208.729,24.209 210.034,30.764 214.627,24.884 208.729,24.209 									"/>
									<polygon fill="#6298D1" points="214.7,29.925 210.43,37.344 210.034,30.764 									"/>
									<polygon fill="#6DA1D6" points="205.725,28.151 204.496,34.171 210.147,30.764 									"/>
									<polyline fill="#6B99D1" points="208.729,24.209 205.725,28.151 205.29,22.879 208.729,24.209 									"/>
									<polygon fill="#6D9CD2" points="201.587,25.631 205.725,28.151 205.29,22.879 									"/>
									<polygon fill="#6799D1" points="201.587,25.631 195.916,32.653 194.801,25.958 									"/>
									<polygon fill="#699CD3" points="194.801,25.958 189.339,32.164 195.952,32.793 									"/>
									<polygon fill="#5C94CE" points="194.801,25.958 188.167,26.19 189.339,32.164 									"/>
									<polyline fill="#578ECA" points="194.757,18.252 188.167,26.19 194.801,25.958 194.757,18.252 									"/>
									<polyline fill="#6292CC" points="189.287,18.897 188.167,26.19 194.835,18.224 189.287,18.897 									"/>
									<polyline fill="#5A8ECA" points="189.287,18.897 181.591,25.188 188.167,26.19 189.287,18.897 									"/>
									<polyline fill="#5E8ECA" points="189.428,15.007 181.779,18.844 189.287,18.897 189.428,15.007 									"/>
									<path fill="#649DD4" d="M227.2,41.448"/>
									<polygon fill="#699FD5" points="214.645,29.981 214.363,37.179 222.072,32.35 									"/>
									<polygon fill="#5D95CF" points="205.725,28.151 204.478,34.23 201.543,35.695 									"/>
									<polygon fill="#679AD1" points="201.555,35.618 199.805,31.793 205.725,28.151 									"/>
									<polyline fill="#6E9FD4" points="201.654,25.701 199.805,31.793 205.725,28.151 201.654,25.701 									"/>
									<polyline fill="#6C9AD1" points="208.661,24.19 205.725,28.151 210.147,30.764 208.661,24.19 									"/>
									<polyline fill="#5991CD" points="201.667,25.64 199.818,31.732 195.906,32.733 201.667,25.64 									"/>
									<path fill="#578FCB" d="M181.906,29.769c0,0,7.401,2.495,7.433,2.396c0.03-0.102-1.172-5.974-1.172-5.974L181.906,29.769z"
										/>
									<polygon fill="#5E97D1" points="181.906,29.769 181.614,37.079 189.339,32.164 									"/>
									<polygon fill="#5E99D2" points="189.269,32.164 189.781,37.711 195.882,32.793 									"/>
									<polygon fill="#6E9FD5" points="199.818,31.732 195.829,32.622 201.643,35.632 									"/>
									<polyline fill="#6591CC" points="215.859,14.273 209.226,20.336 208.064,16.263 215.859,14.273 									"/>
									<polyline fill="#5F8FCB" points="205.29,22.879 209.226,20.336 208.177,16.031 205.29,22.879 									"/>
									<polyline fill="#6897D0" points="205.29,22.879 201.654,25.515 203.005,19.225 205.29,22.879 									"/>
									<polygon fill="#5F92CD" points="195.02,25.932 201.654,25.701 203.005,19.225 									"/>
									<polygon fill="#6897CF" points="195.02,25.932 198.844,19.733 203.005,19.225 									"/>
									<polygon fill="#6291CC" points="198.844,19.733 194.757,18.252 195.02,25.932 									"/>
									<polyline fill="#658FCA" points="199.967,13.857 198.844,19.733 203.005,19.225 199.967,13.857 									"/>
									<polyline fill="#5785C4" points="199.967,13.857 194.757,18.252 198.844,19.733 199.967,13.857 									"/>
									<polyline fill="#6D90CA" points="220.434,7.565 221.744,3.354 215.935,7.379 									"/>
									<line fill="#6D90CA" x1="215.935" y1="7.379" x2="220.434" y2="7.565"/>
									<polyline fill="#6B96CE" points="228.426,13.484 227.616,18.127 222.144,19.072 228.426,13.484 									"/>
									<polyline fill="#6892CC" points="222.231,14.967 215.859,14.273 214.865,18.694 222.231,14.967 									"/>
									<polyline fill="#6B96CE" points="222.231,14.967 222.144,19.072 214.865,18.694 222.231,14.967 									"/>
									<polyline fill="#5B8AC7" points="214.865,18.694 214.627,24.884 222.044,19.186 214.865,18.694 									"/>
									<polyline fill="#6594CE" points="214.865,18.694 208.661,24.19 214.627,24.884 214.865,18.694 									"/>
									<polyline fill="#608DC9" points="214.865,18.694 209.225,20.39 208.76,24.069 214.865,18.694 									"/>
									<polyline fill="#568BC9" points="209.225,20.39 205.29,22.879 208.661,24.19 209.225,20.39 									"/>
									<polygon fill="#5179BD" points="183.107,3.375 183.138,7.256 189.134,2.962 									"/>
									<polyline fill="#608AC7" points="215.935,7.379 210.688,13.254 215.859,14.273 215.935,7.379 									"/>
									<path fill="#658CC8" d="M210.688,13.254l-2.211-6.152c0,0,7.534,0.371,7.458,0.277
										C215.859,7.287,210.688,13.254,210.688,13.254z"/>
									<polygon fill="#6991CB" points="210.688,13.254 204.54,10.803 208.477,7.103 									"/>
									<polygon fill="#6E94CD" points="210.688,13.254 208.064,16.263 204.54,10.803 									"/>
									<polygon fill="#6993CD" points="208.251,16.217 205.29,22.879 204.69,10.941 									"/>
									<polygon fill="#5E8CC9" points="205.29,22.879 203.005,19.225 204.466,10.989 									"/>
									<polygon fill="#6892CC" points="203.005,19.225 200.154,13.671 204.54,10.803 									"/>
									<polygon fill="#6C93CC" points="204.54,10.803 201.692,7.704 199.967,13.857 									"/>
									<polygon fill="#5E85C4" points="201.692,7.704 204.69,7.24 204.54,10.803 									"/>
									<polygon fill="#668BC7" points="208.477,7.103 204.69,7.24 204.54,10.803 									"/>
									<polygon fill="#5380C1" points="220.434,7.565 215.859,14.273 222.231,14.967 									"/>
									<polygon fill="#6489C6" points="220.321,7.565 215.935,7.379 215.859,14.273 									"/>
									<polygon fill="#6A91CB" points="208.064,16.263 215.859,14.273 210.688,13.254 									"/>
									<polygon fill="#5F86C4" points="221.707,3.401 215.71,3.447 216.122,7.195 									"/>
									<polygon fill="#5C80C1" points="208.477,7.103 215.71,3.447 216.122,7.195 									"/>
									<polygon fill="#6689C6" points="215.71,3.447 214.249,-3.725 209.788,3.354 									"/>
									<polygon fill="#6689C6" points="222.646,-2.798 215.71,3.447 221.707,3.401 									"/>
									<polygon fill="#658BC7" points="227.179,0.996 220.434,7.565 221.707,3.401 									"/>
									<polygon fill="#6790CB" points="227.179,0.996 220.434,7.565 222.231,14.967 									"/>
									<polygon fill="#648DC9" points="222.335,14.948 228.378,6.929 227.179,0.996 									"/>
									<polygon fill="#6692CC" points="228.378,6.929 228.426,13.484 222.239,15.063 									"/>
									<polygon fill="#5787C5" points="228.426,13.484 222.239,15.063 222.144,19.072 									"/>
									<path fill="#6D96CE" d="M215.859,14.273c0,0-0.922,4.42-0.994,4.42c-0.07,0-5.641,1.696-5.641,1.696L215.859,14.273z"/>
									<polygon fill="#6B8FCA" points="204.69,7.24 209.509,3.389 208.477,7.103 									"/>
									<polygon fill="#537BBD" points="206.19,1.515 204.696,7.134 209.509,3.389 									"/>
									<polygon fill="#6183C2" points="206.19,1.515 201.732,3.154 204.696,7.134 									"/>
									<polygon fill="#5980C1" points="201.732,3.154 201.661,7.603 204.69,7.24 									"/>
									<polygon fill="#658CC8" points="201.615,3.096 195.592,13.543 201.692,7.704 									"/>
									<polygon fill="#557FC0" points="201.615,3.096 195.568,6.958 195.592,13.426 									"/>
									<polygon fill="#628DC9" points="195.568,6.958 189.428,15.007 195.521,13.512 									"/>
									<polygon fill="#5181C2" points="195.521,13.512 189.334,18.985 189.428,15.007 									"/>
									<polygon fill="#6893CD" points="189.287,18.897 194.835,18.224 195.521,13.512 									"/>
									<polygon fill="#6390CB" points="194.835,18.224 199.967,13.857 195.521,13.512 									"/>
									<polygon fill="#5D86C5" points="201.692,7.704 195.592,13.543 199.967,13.857 									"/>
									<polygon fill="#5E86C5" points="189.409,14.875 194.308,1.025 195.583,6.856 									"/>
									<polygon fill="#6088C6" points="189.409,14.875 187.487,7.689 194.308,1.025 									"/>
									<polygon fill="#4B79BD" points="187.487,7.689 183.088,14.351 189.428,15.007 									"/>
									<path fill="#6085C4" d="M189.085,3.123l5.223-2.098c0,0-6.847,6.878-6.847,6.787C187.461,7.72,189.085,3.123,189.085,3.123
										z"/>
									<polygon fill="#6788C5" points="210.45,-2.953 209.509,3.389 206.19,1.515 									"/>
									<polygon fill="#6186C4" points="209.509,3.389 208.477,7.103 215.71,3.447 									"/>
									<polygon fill="#5B81C1" points="194.308,1.025 195.568,6.958 201.693,3.066 									"/>
								</g>
							</g>
						</g>
						<linearGradient id="SVGID_8_" gradientUnits="userSpaceOnUse" x1="212.1875" y1="52.3906" x2="200.3411" y2="-6.3948">
							<stop  offset="0.0307" style="stop-color:#4BACD5"/>
							<stop  offset="0.4969" style="stop-color:#4CC5D7;stop-opacity:0.49"/>
							<stop  offset="1" style="stop-color:#1C466A"/>
						</linearGradient>
						<rect x="174.542" y="-5.617" fill="url(#SVGID_8_)" width="62.555" height="52.816"/>
					</g>
				</g>
			</g>
		</g>
	</g>
	<polygon fill="#FFFFFF" points="198.301,25.646 199.854,13.067 196.23,13.067 194.703,25.646 	"/>
	<path fill="#FFFFFF" d="M190.162,24.109c0-0.978,0.686-1.771,1.663-1.771c0.898,0,1.479,0.66,1.479,1.584
		c0,0.951-0.688,1.742-1.69,1.742C190.742,25.665,190.162,24.979,190.162,24.109z"/>
	<polygon fill="#FFFFFF" points="202.379,10.703 192.205,10.703 191.651,14.326 203.363,14.326 	"/>
	<path fill="#FFFFFF" d="M225.351,0.723c0,0-10.469,22.063-11.102,23.117c-1.157,1.894-3.579,1.788-3.579,1.788h-2.854l-4.39-14.925
		c0,0,4.113,0.088,5.145,3.081c0.276,0.83,2.311,7.211,2.311,7.211l9.837-19.955L225.351,0.723z"/>
</g>
</svg>