<?xml version="1.0" encoding="utf-8"?>
<!DOCTYPE svg PUBLIC "-//W3C//DTD SVG 1.1//EN" "http://www.w3.org/Graphics/SVG/1.1/DTD/svg11.dtd">
<svg version="1.1" id="Layer_1" xmlns="http://www.w3.org/2000/svg" xmlns:xlink="http://www.w3.org/1999/xlink" x="0px" y="0px"
	 width="120px" height="120px" viewBox="0 0 120 120" enable-background="new 0 0 120 120" xml:space="preserve">
<g>
	<g>
		<path fill="#50505A" d="M70.154,103.799H48.807c-2.14,0-3.882-1.741-3.882-3.882s1.742-3.882,3.882-3.882h21.347
			c2.141,0,3.884,1.741,3.884,3.882S72.295,103.799,70.154,103.799z M48.807,97.812c-1.16,0-2.104,0.944-2.104,2.105
			s0.944,2.104,2.104,2.104h21.347c1.161,0,2.105-0.943,2.105-2.104s-0.944-2.105-2.105-2.105H48.807z"/>
		<path fill="#50505A" d="M59.487,119c-2.981,0-5.505-1.992-6.242-4.827c-3.833-0.557-6.742-3.843-6.742-7.764v-0.89h25.955v0.89
			c0,3.916-2.902,7.202-6.727,7.763C64.996,117.008,62.471,119,59.487,119z M48.346,107.298c0.416,2.8,2.765,5.001,5.688,5.17
			l0.72,0.042l0.108,0.712c0.35,2.318,2.295,4,4.625,4c2.332,0,4.278-1.682,4.626-4l0.107-0.712l0.72-0.042
			c2.916-0.172,5.26-2.372,5.675-5.17H48.346z"/>
		<path fill="#50505A" d="M73.514,94.253H45.291V84.028c-2.714-4.587-5.882-9.21-9.172-13.384
			c-4.162-5.28-6.362-11.622-6.362-18.336c0-16.391,13.336-29.725,29.727-29.725c16.39,0,29.723,13.334,29.723,29.725
			c0,6.719-2.2,13.061-6.363,18.34c-2.967,3.763-6.443,8.847-9.33,13.638V94.253z M47.069,92.476h24.667v-8.682l0.128-0.211
			c2.947-4.915,6.531-10.161,9.583-14.035c3.914-4.963,5.984-10.924,5.984-17.239c0-15.41-12.538-27.948-27.946-27.948
			c-15.411,0-27.949,12.538-27.949,27.948c0,6.311,2.068,12.272,5.98,17.235c3.388,4.299,6.649,9.067,9.431,13.791l0.123,0.21
			V92.476z"/>
	</g>
	
		<rect x="36.572" y="76.278" transform="matrix(0.214 0.9768 -0.9768 0.214 116.6462 9.6247)" fill="#50505A" width="31.541" height="2.032"/>
	
		<rect x="65.634" y="61.531" transform="matrix(0.9779 0.2093 -0.2093 0.9779 17.721 -12.2041)" fill="#50505A" width="1.778" height="32.19"/>
	<rect x="54.645" y="112.508" fill="#50505A" width="9.989" height="1.778"/>
	<polygon fill="#50505A" points="57.896,72.477 56.118,65.661 51.286,68.895 50.58,67.839 56.896,63.613 58.165,68.479 
		61.425,60.546 64.113,68.214 68.872,66.039 69.399,67.194 63.375,69.948 61.331,64.115 	"/>
	<path fill="#50505A" d="M60.594,16.385c-0.421,0-0.762-0.341-0.762-0.762V2.417c0-0.421,0.341-0.762,0.762-0.762
		c0.422,0,0.763,0.341,0.763,0.762v13.206C61.356,16.044,61.016,16.385,60.594,16.385z"/>
	<path fill="#50505A" d="M80.83,21.329c-0.135,0-0.271-0.036-0.394-0.11c-0.36-0.218-0.475-0.687-0.257-1.047l6.844-11.294
		c0.22-0.359,0.687-0.475,1.047-0.256c0.36,0.217,0.476,0.686,0.258,1.046l-6.846,11.294C81.34,21.199,81.089,21.329,80.83,21.329z"
		/>
	<path fill="#50505A" d="M93.404,37.271c-0.274,0-0.54-0.149-0.676-0.41c-0.194-0.373-0.05-0.833,0.323-1.028l11.706-6.111
		c0.375-0.195,0.834-0.05,1.028,0.323c0.194,0.373,0.05,0.833-0.322,1.027l-11.707,6.111C93.645,37.243,93.523,37.271,93.404,37.271
		z"/>
	<path fill="#50505A" d="M110.39,56.088c-0.017,0-0.033,0-0.05-0.001l-13.178-0.841c-0.421-0.027-0.738-0.389-0.712-0.809
		s0.387-0.736,0.809-0.711l13.178,0.841c0.421,0.027,0.739,0.389,0.713,0.809C111.124,55.779,110.789,56.088,110.39,56.088z"/>
	<path fill="#50505A" d="M101.981,82.685c-0.15,0-0.302-0.046-0.435-0.139l-10.834-7.55c-0.345-0.241-0.431-0.715-0.189-1.06
		c0.239-0.347,0.715-0.431,1.06-0.189l10.834,7.55c0.347,0.241,0.431,0.715,0.189,1.06C102.459,82.57,102.223,82.685,101.981,82.685
		z"/>
	<path fill="#50505A" d="M38.437,21.329c-0.257,0-0.509-0.13-0.652-0.367L30.94,9.668c-0.218-0.36-0.103-0.829,0.256-1.046
		c0.36-0.219,0.829-0.104,1.046,0.256l6.845,11.294c0.218,0.36,0.104,0.829-0.256,1.047C38.708,21.293,38.571,21.329,38.437,21.329z
		"/>
	<path fill="#50505A" d="M25.863,37.271c-0.119,0-0.24-0.028-0.352-0.087l-11.707-6.111c-0.373-0.194-0.518-0.655-0.323-1.027
		c0.195-0.373,0.655-0.518,1.028-0.323l11.707,6.111c0.373,0.195,0.517,0.655,0.323,1.028
		C26.403,37.121,26.138,37.271,25.863,37.271z"/>
	<path fill="#50505A" d="M8.877,56.088c-0.399,0-0.733-0.31-0.759-0.713c-0.028-0.42,0.292-0.781,0.711-0.809l13.179-0.841
		c0.422-0.026,0.782,0.292,0.809,0.711s-0.292,0.782-0.711,0.809L8.927,56.087C8.91,56.088,8.894,56.088,8.877,56.088z"/>
	<path fill="#50505A" d="M17.285,82.685c-0.24,0-0.478-0.114-0.625-0.328c-0.241-0.345-0.156-0.818,0.189-1.06l10.834-7.55
		c0.345-0.241,0.82-0.157,1.061,0.189c0.24,0.345,0.156,0.818-0.189,1.06l-10.834,7.55C17.588,82.639,17.436,82.685,17.285,82.685z"
		/>
</g>
</svg>
