<?xml version="1.0" encoding="utf-8"?>
<!DOCTYPE svg PUBLIC "-//W3C//DTD SVG 1.1//EN" "http://www.w3.org/Graphics/SVG/1.1/DTD/svg11.dtd">
<svg version="1.1" id="Layer_1" xmlns="http://www.w3.org/2000/svg" xmlns:xlink="http://www.w3.org/1999/xlink" x="0px" y="0px"
	 width="120px" height="120px" viewBox="0 0 120 120" enable-background="new 0 0 120 120" xml:space="preserve">
<g>
	<path fill="#50505A" d="M91.832,65.769c-1.564,0-2.543-0.378-3.658-1.309c-0.6-0.499-0.967-1.223-1.189-2.014h8.639
		c1.883,0,4.614-0.558,6.496-2.252c1.884-1.693,2.148-3.556,2.148-4.696v-1.644c0-1.246-0.928-3.845-2.148-5.064
		c-1.219-1.22-3.949-2.254-6.018-2.254h-3.686c-1.883,0-4.956,0.558-8.271,3.103c-2.24,1.72-3.292,4.407-3.739,6.796
		c-4.151,0-7.504,0-7.504,0c0-7.38,0-15.342,0-15.342H66.61c0,0,0,8.052,0,15.342c-4.521,0-8.527,0-9.537,0
		c-2.598,0-5.621,0.999-7.238,2.509c-1.618,1.512-3.234,3.925-3.446,6.823c0,0-0.001,0.006-0.001,0.014
		c-3.464-0.005-9.926-0.014-14.104-0.014c-3.313,0-4.694-1.481-5.27-3.322c4.278,0,8.195,0,9.352,0c2.651,0,4.932-1.166,6.099-2.228
		c1.167-1.061,2.015-2.439,2.015-5.515c0-3.076-0.743-4.242-1.697-5.515c-0.954-1.273-3.924-2.652-6.522-2.652h-4.083
		c-3.553,0-7.105,2.016-9.28,4.348c-1.458,1.566-2.247,3.53-2.609,5.55c-2.29,0-4.363,0-5.822,0c-6.115,0-7.813,3.359-7.813,3.359
		v-3.359H0.432c0,0,0,19.957,0,21.653c0,1.697,0.459,2.456,1.785,2.456c1.326,0,1.537,0,2.598,0c1.061,0,1.838-0.813,1.838-1.607
		s0-5.356,0-9.015c0-3.659,2.369-7.476,7.159-7.476c0.92,0,3.447,0,6.501,0c0.386,1.917,1.231,3.792,2.901,5.567
		c2.545,2.703,5.303,3.764,9.174,3.764c3.03,0,11.356,0,14.83,0c0.323,0.872,0.764,1.717,1.37,2.439
		c2.199,2.627,6.284,3.501,7.822,3.501c1.538,0,4.692,0,6.416,0c2.678,0,5.793-1.684,7.569-3.461
		c1.775-1.775,2.505-3.777,2.505-5.605c0-0.52,0-2.969,0-6.205h7.431c0.305,1.634,1.023,3.314,2.672,5.328
		c2.624,3.21,6.469,4.004,9.387,4.004c2.916,0,26.963,0,26.963,0v-6.009H91.832z M31.594,52.476h3.924
		c3.554,0,2.546,3.959,0.107,3.959c-1.157,0-4.78,0-8.835,0C27.355,54.12,29.217,52.476,31.594,52.476z M87.43,54.677
		c0.717-1.353,2.122-2.201,3.979-2.201c1.854,0,3.154,0,4.545,0c1.392,0,2.003,0.875,2.003,1.91c0,1.034-0.796,2.049-1.99,2.049
		c-0.494,0-4.562,0-9.145,0C86.938,55.834,87.127,55.251,87.43,54.677z M66.61,67.854c0,1.964-1.954,3.924-3.466,3.924
		c-1.511,0-5.11,0-6.439,0c-1.33,0-4.033-1.298-4.033-4.399v-0.61c0-2.838,1.91-4.321,3.818-4.321h10.12
		C66.61,65.247,66.61,67.339,66.61,67.854z"/>
	<rect x="86.547" y="56.444" fill="#50505A" width="6.771" height="6.01"/>
	<path fill="#50505A" d="M72.901,41.094H66.61c0,0,0,24.8,0,26.76c0,1.963-1.954,3.924-3.466,3.924c-1.511,0-5.11,0-6.439,0
		c-1.33,0-4.033-1.298-4.033-4.399v-0.61c0-2.838,1.91-4.321,3.818-4.321h25.611v-6.011c0,0-22.43,0-25.028,0
		s-5.621,0.999-7.238,2.51c-1.618,1.512-3.234,3.924-3.446,6.823c0,0-0.399,5.347,2.2,8.448c2.199,2.627,6.284,3.5,7.822,3.5
		c1.538,0,4.692,0,6.416,0c2.678,0,5.793-1.684,7.569-3.46c1.775-1.775,2.505-3.777,2.505-5.606
		C72.901,66.82,72.901,41.094,72.901,41.094z"/>
</g>
</svg>
