<?xml version="1.0" ?><!DOCTYPE svg  PUBLIC '-//W3C//DTD SVG 1.1//EN'  'http://www.w3.org/Graphics/SVG/1.1/DTD/svg11.dtd'><svg height="512px" style="shape-rendering:geometricPrecision; text-rendering:geometricPrecision; image-rendering:optimizeQuality; fill-rule:evenodd; clip-rule:evenodd" viewBox="0 0 108.698 108.699" width="512px" xml:space="preserve" xmlns="http://www.w3.org/2000/svg" xmlns:xlink="http://www.w3.org/1999/xlink"><defs><style type="text/css">
   <![CDATA[
    .fil0 {fill:#4B4B4D}
   ]]>
  </style></defs><g id="Layer_x0020_1"><path class="fil0" d="M-0 0l108.698 0 0 108.699 -108.698 0 0 -108.699zm77.2777 44.1327c-3.17626,0 -6.04463,-1.19461 -8.28129,-3.103l-24.8934 12.5134c0,0.615203 -0.0963837,1.20562 -0.181752,1.79604l24.9683 12.3729c2.25097,-1.96678 5.16231,-3.19884 8.38813,-3.19884 7.06465,0 12.7926,5.71528 12.7926,12.7662 0,7.04868 -5.72794,12.764 -12.7926,12.764 -7.0652,0 -12.7909,-5.71528 -12.7909,-12.764 0,-0.219204 0.0534241,-0.421885 0.0638886,-0.636683l-25.6634 -12.8818c-2.11053,1.55426 -4.69636,2.50377 -7.52013,2.50377 -7.03656,0 -12.7397,-5.70261 -12.7397,-12.7375 0.000550764,-7.03656 5.70316,-12.7392 12.7397,-12.7392 3.42135,0 6.51333,1.36589 8.80231,3.56179l24.3939 -12.2005c-0.0159722,-0.256105 -0.0765562,-0.496238 -0.0765562,-0.755648 0,-7.03546 5.72574,-12.7375 12.7909,-12.7375 7.06465,-0.000550764 12.7926,5.70261 12.7926,12.7375 0,7.03436 -5.72794,12.7392 -12.7926,12.7392z"/></g></svg>