<?xml version="1.0" encoding="utf-8"?>
<!DOCTYPE svg PUBLIC "-//W3C//DTD SVG 1.1//EN" "http://www.w3.org/Graphics/SVG/1.1/DTD/svg11.dtd">
<svg version="1.1" id="Layer_1" xmlns="http://www.w3.org/2000/svg" xmlns:xlink="http://www.w3.org/1999/xlink" x="0px" y="0px"
	 width="120px" height="120px" viewBox="0 0 120 120" enable-background="new 0 0 120 120" xml:space="preserve">
<path fill="#50505A" d="M83.949,13.027c4.919,5.724,7.902,13.174,7.902,21.304v14.314h5.79c1.872,0,3.385,1.521,3.385,3.385v63.495
	c0,1.871-1.513,3.385-3.385,3.385H20.615c-0.899,0-1.704-0.352-2.31-0.921c-0.665-0.615-1.075-1.491-1.075-2.464V52.031
	c0-1.864,1.521-3.385,3.385-3.385h5.79V34.331c0-18.043,14.681-32.724,32.724-32.724C69.041,1.607,77.938,6.038,83.949,13.027z
	 M76.229,48.646V34.331c0-9.424-7.669-17.1-17.1-17.1c-9.424,0-17.1,7.676-17.1,17.1v14.314H76.229z M64.406,87.291
	c2.34-1.653,3.86-4.38,3.86-7.458c0-5.052-4.086-9.138-9.138-9.138c-5.044,0-9.139,4.086-9.139,9.138
	c0,3.078,1.528,5.805,3.86,7.458v13.518c0,1.176,0.958,2.135,2.142,2.135h6.281c1.177,0,2.134-0.959,2.134-2.135V87.291z"/>
</svg>
