<?xml version="1.0" encoding="utf-8"?>
<!DOCTYPE svg PUBLIC "-//W3C//DTD SVG 1.1//EN" "http://www.w3.org/Graphics/SVG/1.1/DTD/svg11.dtd">
<svg version="1.1" id="Layer_1" xmlns="http://www.w3.org/2000/svg" xmlns:xlink="http://www.w3.org/1999/xlink" x="0px" y="0px"
	 width="120px" height="120px" viewBox="0 0 120 120" enable-background="new 0 0 120 120" xml:space="preserve">
<g>
	<rect x="21.989" y="38.671" fill="#EAEAEA" width="77.011" height="69.173"/>
	<polygon fill="#50505A" points="99,40.977 99,36.734 73.847,36.734 73.847,11.581 21.989,11.581 21.989,40.977 	"/>
	<polygon fill="#50505A" points="75.555,11.581 75.555,35.025 99,35.025 	"/>
	<g>
		<g>
			<path fill="#50505A" d="M43.153,63.357v24.924h37.84V63.357H43.153z M79.434,64.916v5.718l-15.636,8.588l-9.743-6.117
				l-9.341,5.097V64.916H79.434z M44.714,86.724v-6.746l9.288-5.066l9.743,6.118l15.689-8.617v14.312H44.714z"/>
			<path fill="#50505A" d="M65.02,74.562c2.239,0,4.063-1.826,4.063-4.066c0-2.242-1.824-4.063-4.063-4.063
				c-2.238,0-4.066,1.821-4.066,4.063C60.953,72.735,62.78,74.562,65.02,74.562z M65.02,67.989c1.383,0,2.506,1.125,2.506,2.508
				s-1.123,2.508-2.506,2.508c-1.386,0-2.508-1.125-2.508-2.508S63.632,67.989,65.02,67.989z"/>
		</g>
		<g>
			<polygon fill="#50505A" points="39.689,59.474 39.689,84.395 41.246,84.395 41.246,82.838 41.246,82.838 41.246,76.091 
				41.246,76.086 41.246,74.311 41.246,74.314 41.246,61.031 75.968,61.031 75.968,61.031 77.523,61.031 77.523,59.474 			"/>
		</g>
	</g>
</g>
</svg>