<?xml version="1.0" encoding="utf-8"?>
<!-- Generator: Adobe Illustrator 15.0.0, SVG Export Plug-In . SVG Version: 6.00 Build 0)  -->
<!DOCTYPE svg PUBLIC "-//W3C//DTD SVG 1.1//EN" "http://www.w3.org/Graphics/SVG/1.1/DTD/svg11.dtd">
<svg version="1.1" id="Layer_1" xmlns="http://www.w3.org/2000/svg" xmlns:xlink="http://www.w3.org/1999/xlink" x="0px" y="0px"
	 width="42px" height="42px" viewBox="0 0 42 42" enable-background="new 0 0 42 42" xml:space="preserve">
<g>
	<circle id="XMLID_5_" fill="#525151" cx="21" cy="21" r="21"/>
	<g>
		<path fill-rule="evenodd" clip-rule="evenodd" fill="#FFFFFF" d="M15.849,30.112V15.848h-4.741v14.265H15.849L15.849,30.112z
			 M13.479,13.901c1.653,0,2.682-1.096,2.682-2.465c-0.03-1.399-1.028-2.465-2.65-2.465s-2.682,1.065-2.682,2.465
			c0,1.369,1.029,2.465,2.62,2.465H13.479L13.479,13.901z"/>
		<path fill-rule="evenodd" clip-rule="evenodd" fill="#FFFFFF" d="M18.473,30.112h4.741v-7.966c0-0.426,0.03-0.853,0.155-1.156
			c0.343-0.853,1.123-1.735,2.433-1.735c1.716,0,2.402,1.31,2.402,3.227v7.631h4.74v-8.179c0-4.382-2.339-6.42-5.458-6.42
			c-2.558,0-3.681,1.43-4.305,2.403h0.032v-2.069h-4.741C18.534,17.186,18.473,30.112,18.473,30.112L18.473,30.112z"/>
	</g>
</g>
</svg>
