<svg version="1.1" id="Layer_1" xmlns="http://www.w3.org/2000/svg" xmlns:xlink="http://www.w3.org/1999/xlink" x="0px" y="0px"
	 width="24px" height="24px" viewBox="0 0 24 24" enable-background="new 0 0 24 24" xml:space="preserve">
<g>
	<path fill="#3C3D3D" d="M22.514,6.314c0.686,1.152,1.148,2.456,1.396,3.912c-0.745,0.161-1.48,0.243-2.21,0.243
		c-1.237,0-2.535-0.327-3.899-0.979V9.224c0-1.254-1.903-1.881-5.705-1.881c-3.929,0-5.894,0.626-5.894,1.881V9.49
		c-1.304,0.77-2.592,1.156-3.862,1.156c-0.753,0-1.504-0.139-2.248-0.42C0.326,8.855,0.793,7.55,1.494,6.314
		c1.609-0.601,3.284-1.05,5.027-1.347c1.74-0.296,3.546-0.444,5.417-0.444c1.941,0,3.791,0.148,5.552,0.444
		C19.253,5.264,20.929,5.713,22.514,6.314z M6.201,10.226v0.47c0,1.016-0.293,1.755-0.882,2.216
		c-0.589,0.462-1.531,0.695-2.828,0.695c-0.931,0-1.563-0.155-1.899-0.465c-0.334-0.31-0.501-0.896-0.501-1.76v-0.546
		c0.855,0.279,1.63,0.418,2.325,0.418C3.72,11.255,4.981,10.912,6.201,10.226z M10.127,10.938h3.758V9.224h2.822v2.375l3.354,5.347
		c0.492,0.781,0.814,1.418,0.966,1.912c0.152,0.495,0.228,1.15,0.228,1.963v2.974H2.746v-2.974c0-1.262,0.425-2.57,1.275-3.925
		l3.284-5.297V9.224h2.821V10.938z M8.476,12.983v1.093h1.562v-1.093H8.476z M8.476,14.863v1.093h1.562v-1.093H8.476z M8.476,16.743
		v1.094h1.562v-1.094H8.476z M11.144,12.983v1.093h1.562v-1.093H11.144z M11.144,14.863v1.093h1.562v-1.093H11.144z M11.144,16.743
		v1.094h1.562v-1.094H11.144z M13.81,12.983v1.093h1.562v-1.093H13.81z M13.81,14.863v1.093h1.562v-1.093H13.81z M13.81,16.743
		v1.094h1.562v-1.094H13.81z M23.909,10.784v0.611c0,0.788-0.167,1.329-0.503,1.62c-0.334,0.292-0.952,0.438-1.858,0.438
		c-1.272,0-2.213-0.224-2.829-0.672c-0.612-0.449-0.919-1.14-0.919-2.071v-0.571c1.204,0.644,2.497,0.966,3.887,0.966
		C22.482,11.104,23.224,10.998,23.909,10.784z"/>
</g>
</svg>
