<?xml version="1.0" encoding="utf-8"?>
<!DOCTYPE svg PUBLIC "-//W3C//DTD SVG 1.1//EN" "http://www.w3.org/Graphics/SVG/1.1/DTD/svg11.dtd">
<svg version="1.1" id="Layer_1" xmlns="http://www.w3.org/2000/svg" xmlns:xlink="http://www.w3.org/1999/xlink" x="0px" y="0px"
	 width="120px" height="120px" viewBox="0 0 120 120" enable-background="new 0 0 120 120" xml:space="preserve">
<path fill="#50505A" d="M23.408,70.49c-1.7,1.7-4.047,2.752-6.639,2.752c-5.185,0-9.388-4.208-9.388-9.389
	c0-5.186,4.204-9.391,9.388-9.391c1.253,0,2.448,0.247,3.542,0.692l2.513-5.986c-1.873-0.775-3.926-1.205-6.081-1.205
	c-8.781,0-15.9,7.119-15.9,15.903c0,8.78,7.119,15.898,15.9,15.898c4.314,0,8.229-1.719,11.094-4.51L23.408,70.49z"/>
<path fill="#50505A" d="M72.373,60.254c-1.631-7.053-7.947-12.31-15.495-12.31c-8.781,0-15.902,7.12-15.902,15.899
	c0,3.188,0.937,6.154,2.551,8.644L72.373,60.254z M63.542,70.472c-1.699,1.699-4.047,2.749-6.64,2.749
	c-1.856,0-3.588-0.538-5.044-1.471l-3.512,5.515c2.466,1.569,5.394,2.48,8.534,2.48c4.319,0,8.235-1.723,11.1-4.517L63.542,70.472z
	 M47.575,64.899c-0.04-0.349-0.061-0.709-0.061-1.068c0-5.185,4.202-9.388,9.388-9.388c2.849,0,5.4,1.27,7.128,3.273L47.575,64.899z
	"/>
<path fill="#50505A" d="M109.845,70.777c-1.668,1.517-3.885,2.443-6.316,2.443c-5.187,0-9.388-4.205-9.388-9.39
	c0-1.435,0.321-2.793,0.894-4.009l-5.876-2.849c-0.997,2.08-1.556,4.41-1.556,6.871c0,8.783,7.118,15.903,15.902,15.903
	c4.133,0,7.897-1.576,10.724-4.163L109.845,70.777z"/>
<path fill="#50505A" d="M25.599,57.115l2.42-6.023l5.048,2.068c0,0,3.853,1.425,3.853,6.063v20.058h-6.082V59.405L25.599,57.115z"/>
<path fill="#50505A" d="M86.647,73.698l-2.42,6.023l-5.048-2.067c0,0-3.853-1.424-3.853-6.062V40.741h6.082V71.41L86.647,73.698z"/>
<path fill="#A0A0A0" d="M97.165,56.912c1.668-1.518,3.884-2.444,6.314-2.444c5.185,0,9.392,4.205,9.392,9.388
	c0,1.436-0.326,2.794-0.898,4.01l5.875,2.852c1-2.08,1.559-4.41,1.559-6.873c0-8.781-7.118-15.901-15.899-15.901
	c-4.134,0-7.898,1.577-10.727,4.164L97.165,56.912z"/>
<circle fill="#A0A0A0" cx="33.859" cy="44.622" r="4.427"/>
</svg>
