<?xml version="1.0" encoding="iso-8859-1"?>
<!-- Generator: Adobe Illustrator 14.0.0, SVG Export Plug-In . SVG Version: 6.00 Build 43363)  -->
<!DOCTYPE svg PUBLIC "-//W3C//DTD SVG 1.1//EN" "http://www.w3.org/Graphics/SVG/1.1/DTD/svg11.dtd">
<svg version="1.1" id="Layer_1" xmlns="http://www.w3.org/2000/svg" xmlns:xlink="http://www.w3.org/1999/xlink" x="0px" y="0px"
	 width="120px" height="120px" viewBox="0 0 120 120" enable-background="new 0 0 120 120" xml:space="preserve">
<path fill="#383940" d="M101.197,34.501H28.388c-6.068,0-8.087-3.034-8.087-5.058l80.896-7.584v-7.585
	c0-3.034-3.034-5.56-6.067-5.058L18.785,22.869c-5.058,1.014-8.599,5.058-8.599,10.115v67.244c0,5.565,4.55,10.116,10.115,10.116
	h80.896c5.565,0,10.115-4.551,10.115-10.116V44.611C111.313,39.052,106.763,34.501,101.197,34.501z M93.612,80.006
	c-4.043,0-7.584-3.54-7.584-7.584c0-4.048,3.541-7.584,7.584-7.584c4.049,0,7.585,3.536,7.585,7.584
	C101.197,76.466,97.661,80.006,93.612,80.006z"/>
</svg>
