<?xml version="1.0" encoding="utf-8"?>
<!DOCTYPE svg PUBLIC "-//W3C//DTD SVG 1.1//EN" "http://www.w3.org/Graphics/SVG/1.1/DTD/svg11.dtd">
<svg version="1.1" id="Layer_1" xmlns="http://www.w3.org/2000/svg" xmlns:xlink="http://www.w3.org/1999/xlink" x="0px" y="0px"
	 width="120px" height="120px" viewBox="0 0 120 120" enable-background="new 0 0 120 120" xml:space="preserve">
<rect x="0.73" y="22.338" fill="#515151" width="0.946" height="72.244"/>
<rect x="2.813" y="22.338" fill="#515151" width="0.946" height="72.244"/>
<rect x="7.355" y="22.338" fill="#515151" width="0.946" height="72.244"/>
<rect x="9.816" y="22.338" fill="#515151" width="1.894" height="72.244"/>
<rect x="12.93" y="22.338" fill="#515151" width="4.069" height="64.675"/>
<rect x="18.713" y="22.338" fill="#515151" width="2.839" height="64.675"/>
<rect x="23.513" y="22.338" fill="#515151" width="2.839" height="64.675"/>
<rect x="28.816" y="22.338" fill="#515151" width="1.42" height="64.675"/>
<rect x="33.369" y="22.338" fill="#515151" width="4.613" height="64.675"/>
<rect x="40.994" y="22.338" fill="#515151" width="2.721" height="64.675"/>
<rect x="45.752" y="22.338" fill="#515151" width="0.943" height="64.675"/>
<rect x="48.826" y="22.338" fill="#515151" width="5.281" height="64.675"/>
<rect x="57.121" y="22.338" fill="#515151" width="2.721" height="64.675"/>
<rect x="61.799" y="22.338" fill="#515151" width="1.081" height="64.675"/>
<rect x="64.591" y="22.338" fill="#515151" width="1.183" height="72.244"/>
<rect x="67.779" y="22.338" fill="#515151" width="1.241" height="72.244"/>
<rect x="70.979" y="22.338" fill="#515151" width="4.495" height="64.675"/>
<rect x="77.704" y="22.338" fill="#515151" width="2.81" height="64.675"/>
<rect x="83.343" y="22.338" fill="#515151" width="1.184" height="64.675"/>
<rect x="86.475" y="22.338" fill="#515151" width="3.416" height="64.675"/>
<rect x="92.347" y="22.338" fill="#515151" width="1.894" height="64.675"/>
<rect x="95.848" y="22.338" fill="#515151" width="5.677" height="64.675"/>
<rect x="103.417" y="22.338" fill="#515151" width="1.893" height="64.675"/>
<rect x="108.15" y="22.338" fill="#515151" width="1.893" height="64.675"/>
<rect x="111.461" y="22.338" fill="#515151" width="0.946" height="72.244"/>
<rect x="116.219" y="22.338" fill="#515151" width="1.301" height="72.244"/>
<rect x="118.326" y="22.338" fill="#515151" width="1.066" height="72.244"/>
<g>
	<path fill="#515151" d="M16.059,94.601c-0.75-0.354-1.071-0.937-1.071-1.52c0-1.073,0.906-1.802,2.092-1.802
		c1.311,0,1.967,0.823,1.967,1.666c0,0.572-0.281,1.187-1.114,1.583v0.029c0.843,0.334,1.364,0.928,1.364,1.75
		c0,1.177-1.01,1.968-2.3,1.968c-1.417,0-2.27-0.844-2.27-1.833c0-0.853,0.51-1.456,1.343-1.811L16.059,94.601z M18.37,96.402
		c0-0.823-0.572-1.219-1.488-1.479c-0.791,0.229-1.218,0.749-1.218,1.396c-0.031,0.687,0.489,1.29,1.354,1.29
		C17.839,97.608,18.37,97.089,18.37,96.402z M15.852,93.018c0,0.678,0.51,1.041,1.291,1.25c0.583-0.198,1.03-0.614,1.03-1.229
		c0-0.541-0.322-1.103-1.146-1.103C16.268,91.937,15.852,92.436,15.852,93.018z"/>
	<path fill="#515151" d="M24.543,91.395v0.604l-2.946,6.162H20.65l2.936-5.985v-0.021h-3.31v-0.76H24.543z"/>
	<path fill="#515151" d="M29.353,92.039c-0.188-0.01-0.426,0-0.687,0.042c-1.437,0.239-2.196,1.291-2.352,2.405h0.031
		c0.323-0.428,0.885-0.78,1.634-0.78c1.197,0,2.041,0.862,2.041,2.186c0,1.238-0.843,2.384-2.249,2.384
		c-1.447,0-2.395-1.125-2.395-2.884c0-1.333,0.479-2.384,1.146-3.05c0.562-0.552,1.312-0.896,2.165-0.999
		c0.271-0.042,0.5-0.053,0.666-0.053V92.039z M27.781,97.567c0.781,0,1.312-0.655,1.312-1.624c0-0.968-0.552-1.552-1.396-1.552
		c-0.552,0-1.062,0.344-1.311,0.833c-0.063,0.104-0.104,0.24-0.104,0.407c0.021,1.113,0.531,1.936,1.489,1.936H27.781z"/>
	<path fill="#515151" d="M34.871,92.165H32.29l-0.261,1.738c0.156-0.021,0.302-0.042,0.552-0.042c0.52,0,1.041,0.114,1.457,0.364
		c0.531,0.303,0.968,0.885,0.968,1.739c0,1.321-1.051,2.311-2.519,2.311c-0.74,0-1.364-0.209-1.687-0.416l0.229-0.698
		c0.281,0.167,0.833,0.376,1.447,0.376c0.865,0,1.604-0.563,1.604-1.469c-0.011-0.874-0.593-1.5-1.947-1.5
		c-0.385,0-0.687,0.043-0.937,0.074l0.438-3.248h3.238V92.165z"/>
	<path fill="#515151" d="M39.003,98.16v-1.842h-3.144v-0.604l3.02-4.319h0.989V95.6h0.947v0.719h-0.947v1.842H39.003z M39.003,95.6
		v-2.259c0-0.354,0.011-0.708,0.032-1.062h-0.032c-0.208,0.395-0.375,0.686-0.562,0.999l-1.655,2.301V95.6H39.003z"/>
	<path fill="#515151" d="M41.731,97.108c0.261,0.168,0.864,0.429,1.5,0.429c1.176,0,1.541-0.75,1.53-1.313
		c-0.011-0.947-0.864-1.354-1.749-1.354h-0.51v-0.687h0.51c0.666,0,1.509-0.343,1.509-1.146c0-0.541-0.343-1.021-1.187-1.021
		c-0.541,0-1.062,0.241-1.353,0.448l-0.24-0.665c0.354-0.262,1.041-0.521,1.77-0.521c1.332,0,1.936,0.791,1.936,1.615
		c0,0.695-0.417,1.29-1.25,1.592v0.021c0.833,0.167,1.509,0.791,1.509,1.738c0,1.083-0.843,2.03-2.466,2.03
		c-0.761,0-1.427-0.239-1.76-0.459L41.731,97.108z"/>
	<path fill="#515151" d="M46.853,98.16v-0.563l0.718-0.696c1.728-1.646,2.509-2.521,2.519-3.54c0-0.688-0.333-1.322-1.343-1.322
		c-0.614,0-1.125,0.313-1.437,0.573l-0.292-0.646c0.469-0.396,1.135-0.688,1.916-0.688c1.457,0,2.072,1,2.072,1.968
		c0,1.249-0.906,2.258-2.332,3.634l-0.542,0.499v0.02h3.04v0.761H46.853z"/>
	<path fill="#515151" d="M54.182,92.248h-0.021l-1.177,0.636l-0.176-0.698l1.478-0.791h0.78v6.766h-0.884V92.248z"/>
	<path fill="#515151" d="M62.031,94.703c0,2.302-0.854,3.572-2.354,3.572c-1.322,0-2.217-1.239-2.237-3.477
		c0-2.27,0.978-3.52,2.352-3.52C61.22,91.279,62.031,92.551,62.031,94.703z M58.356,94.809c0,1.76,0.542,2.759,1.375,2.759
		c0.937,0,1.385-1.094,1.385-2.821c0-1.665-0.427-2.759-1.375-2.759C58.94,91.987,58.356,92.965,58.356,94.809z"/>
	<path fill="#515151" d="M73.69,92.248H73.67l-1.177,0.636l-0.178-0.698l1.478-0.791h0.781v6.766H73.69V92.248z"/>
	<path fill="#515151" d="M77.042,98.16v-0.563l0.719-0.696c1.729-1.646,2.509-2.521,2.52-3.54c0-0.688-0.334-1.322-1.343-1.322
		c-0.614,0-1.125,0.313-1.437,0.573l-0.29-0.646c0.467-0.396,1.133-0.688,1.914-0.688c1.456,0,2.072,1,2.072,1.968
		c0,1.249-0.907,2.258-2.333,3.634l-0.541,0.499v0.02h3.039v0.761H77.042z"/>
	<path fill="#515151" d="M82.602,97.108c0.261,0.168,0.864,0.429,1.499,0.429c1.178,0,1.541-0.75,1.531-1.313
		c-0.01-0.947-0.865-1.354-1.748-1.354h-0.512v-0.687h0.512c0.664,0,1.508-0.343,1.508-1.146c0-0.541-0.344-1.021-1.187-1.021
		c-0.542,0-1.062,0.241-1.354,0.448l-0.239-0.665c0.354-0.262,1.04-0.521,1.771-0.521c1.331,0,1.935,0.791,1.935,1.615
		c0,0.695-0.416,1.29-1.248,1.592v0.021c0.832,0.167,1.509,0.791,1.509,1.738c0,1.083-0.844,2.03-2.467,2.03
		c-0.76,0-1.426-0.239-1.759-0.459L82.602,97.108z"/>
	<path fill="#515151" d="M90.556,98.16v-1.842h-3.143v-0.604l3.018-4.319h0.989V95.6h0.947v0.719H91.42v1.842H90.556z M90.556,95.6
		v-2.259c0-0.354,0.011-0.708,0.032-1.062h-0.032c-0.209,0.395-0.375,0.686-0.563,0.999l-1.654,2.301V95.6H90.556z"/>
	<path fill="#515151" d="M97.104,92.165h-2.582l-0.261,1.738c0.156-0.021,0.303-0.042,0.552-0.042c0.521,0,1.04,0.114,1.458,0.364
		c0.531,0.303,0.968,0.885,0.968,1.739c0,1.321-1.052,2.311-2.52,2.311c-0.738,0-1.364-0.209-1.686-0.416l0.229-0.698
		c0.281,0.167,0.834,0.376,1.447,0.376c0.863,0,1.604-0.563,1.604-1.469c-0.011-0.874-0.594-1.5-1.947-1.5
		c-0.385,0-0.687,0.043-0.937,0.074l0.437-3.248h3.238V92.165z"/>
	<path fill="#515151" d="M102.267,92.039c-0.186-0.01-0.426,0-0.687,0.042c-1.436,0.239-2.196,1.291-2.352,2.405h0.031
		c0.322-0.428,0.885-0.78,1.634-0.78c1.197,0,2.042,0.862,2.042,2.186c0,1.238-0.845,2.384-2.25,2.384
		c-1.446,0-2.394-1.125-2.394-2.884c0-1.333,0.478-2.384,1.145-3.05c0.563-0.552,1.313-0.896,2.165-0.999
		c0.271-0.042,0.499-0.053,0.665-0.053V92.039z M100.696,97.567c0.78,0,1.311-0.655,1.311-1.624c0-0.968-0.552-1.552-1.394-1.552
		c-0.553,0-1.063,0.344-1.312,0.833c-0.063,0.104-0.105,0.24-0.105,0.407c0.021,1.113,0.531,1.936,1.489,1.936H100.696z"/>
	<path fill="#515151" d="M108.14,91.395v0.604l-2.946,6.162h-0.947l2.936-5.985v-0.021h-3.31v-0.76H108.14z"/>
</g>
</svg>
