<?xml version="1.0" encoding="utf-8"?>
<!-- Generator: Adobe Illustrator 15.0.0, SVG Export Plug-In . SVG Version: 6.00 Build 0)  -->
<!DOCTYPE svg PUBLIC "-//W3C//DTD SVG 1.1//EN" "http://www.w3.org/Graphics/SVG/1.1/DTD/svg11.dtd">
<svg version="1.1" id="Layer_1" xmlns="http://www.w3.org/2000/svg" xmlns:xlink="http://www.w3.org/1999/xlink" x="0px" y="0px"
	 width="42px" height="42px" viewBox="0 0 42 42" enable-background="new 0 0 42 42" xml:space="preserve">
<g>
	<circle id="XMLID_6_" fill="#525151" cx="21" cy="21" r="21"/>
	<g>
		<path fill="#FFFFFF" d="M27.084,7.595c-1.925-0.875-3.972-1.323-6.085-1.323c-1.759,0-3.489,0.339-5.153,0.963
			c0.39,0.354,10.735,9.743,11.238,10.201C27.084,16.759,27.084,7.803,27.084,7.595L27.084,7.595z"/>
		<path fill="#FFFFFF" d="M13.402,33.637c0-0.578,0-12.011,0-12.691c-0.493,0.449-5.928,5.389-6.097,5.543
			C8.487,29.454,10.646,31.971,13.402,33.637L13.402,33.637z"/>
		<path fill="#FFFFFF" d="M6.241,21.031c0,1.267,0.192,2.556,0.537,3.834c0.4-0.364,12.826-11.654,13.082-11.887
			c-0.249-0.227-5.417-4.917-5.585-5.07C9.319,10.452,6.241,15.466,6.241,21.031L6.241,21.031z"/>
		<path fill="#FFFFFF" d="M14.953,27.445c0,0.307,0,6.831,0,7.042c1.499,0.673,3.069,1.091,4.684,1.241h2.71
			c5.098-0.475,9.649-3.617,11.91-8.283C33.725,27.445,15.27,27.445,14.953,27.445L14.953,27.445z"/>
		<path fill="#FFFFFF" d="M28.641,8.441c0,0.585,0,17.134,0,17.449c0.303,0,6.047,0,6.281,0c0.55-1.572,0.837-3.207,0.837-4.859
			C35.759,15.901,33.031,11.113,28.641,8.441L28.641,8.441z"/>
	</g>
</g>
</svg>
