<?xml version="1.0" encoding="utf-8"?>
<!DOCTYPE svg PUBLIC "-//W3C//DTD SVG 1.1//EN" "http://www.w3.org/Graphics/SVG/1.1/DTD/svg11.dtd">
<svg version="1.1" id="Layer_1" xmlns="http://www.w3.org/2000/svg" xmlns:xlink="http://www.w3.org/1999/xlink" x="0px" y="0px"
	 width="32px" height="32px" viewBox="0 0 32 32" enable-background="new 0 0 32 32" xml:space="preserve">
<g id="icomoon-ignore">
	<line fill="none" stroke="#449FDB" x1="0" y1="0" x2="0" y2="0"/>
</g>
<path fill="#FFFFFF" d="M25.6,14.4H6.4c-0.883,0-1.6,0.717-1.6,1.6s0.717,1.6,1.6,1.6h19.2c0.885,0,1.601-0.717,1.601-1.6
	S26.484,14.4,25.6,14.4z M6.4,11.2h19.2c0.885,0,1.601-0.717,1.601-1.6C27.2,8.717,26.484,8,25.6,8H6.4C5.517,8,4.8,8.717,4.8,9.6
	C4.8,10.483,5.517,11.2,6.4,11.2z M25.6,20.8H6.4c-0.883,0-1.6,0.716-1.6,1.601S5.517,24,6.4,24h19.2c0.885,0,1.601-0.715,1.601-1.6
	S26.484,20.8,25.6,20.8z"/>
</svg>
