<svg version="1.1" id="Layer_1" xmlns="http://www.w3.org/2000/svg" xmlns:xlink="http://www.w3.org/1999/xlink" x="0px" y="0px"
	 width="16px" height="16px" viewBox="0 0 16 16" enable-background="new 0 0 16 16" xml:space="preserve">
<path d="M1.889,15.556C1.889,15.8,2.089,16,2.333,16h11.334c0.244,0,0.444-0.2,0.444-0.444V0H1.889V15.556z
	 M12.445,7.111H4.444V6.223h8.001V7.111z M4.444,2.667h8.001v0.889H4.444V2.667z M3.556,4.444h8.89v0.889h-8.89V4.444z M3.556,8
	h8.89v0.889h-8.89V8z M3.556,9.777h8.89v0.89h-8.89V9.777z M3.556,11.556h8.89v0.889h-8.89V11.556z M3.556,13.333H8v0.89H3.556
	V13.333z"/>
</svg>
