<svg version="1.1" id="Layer_1" xmlns="http://www.w3.org/2000/svg" xmlns:xlink="http://www.w3.org/1999/xlink" x="0px" y="0px"
	 width="16px" height="16px" viewBox="0 0 16 16" enable-background="new 0 0 16 16" xml:space="preserve">
<path d="M13.018,10.791c0-3.023-2.831-3.637-3.726-3.88C9.003,6.831,9.028,6.757,8.42,6.688V3.516
	c1.216,0.22,1.484,0.917,1.545,2.133h2.619c0-3.041-1.731-4.23-4.164-4.487V0.176H7.204v0.972C5.187,1.372,3.239,2.674,3.239,5.141
	c0,2.5,1.842,3.263,3.664,3.786c0.1,0.031,0.2,0.058,0.301,0.084v3.641c-0.952-0.282-1.603-0.92-1.603-2.137H2.983
	c-0.027,2.433,1.875,4.2,4.221,4.49v0.983H8.42v-0.955C11.461,14.805,13.018,13.067,13.018,10.791 M5.853,4.897
	c0-0.902,0.648-1.331,1.351-1.463v2.801C6.119,5.867,5.853,5.581,5.853,4.897 M8.42,12.748V9.436
	c1.216,0.33,1.827,0.758,1.827,1.693C10.247,12.239,9.636,12.639,8.42,12.748"/>
</svg>
