<?xml version="1.0" encoding="utf-8"?>
<!DOCTYPE svg PUBLIC "-//W3C//DTD SVG 1.1//EN" "http://www.w3.org/Graphics/SVG/1.1/DTD/svg11.dtd">
<svg version="1.1" id="Layer_1" xmlns="http://www.w3.org/2000/svg" xmlns:xlink="http://www.w3.org/1999/xlink" x="0px" y="0px"
	 width="120px" height="120px" viewBox="0 0 120 120" enable-background="new 0 0 120 120" xml:space="preserve">
<path fill="none" stroke="#50505A" stroke-width="3" stroke-miterlimit="22.9256" d="M16.65,109.459
	c36.898,0,41.903-43.473,66.128-43.473c12.589,0,20.586,8.074,20.586,18.034c0,9.962-6.492,17.082-17.877,16.192
	c6.317-1.444,11.49-5.73,11.49-12.005c0-7.648-6.286-13.85-14.041-13.85c-7.752,0-14.056,6.188-14.035,13.85
	c0.046,18.484,19.827,21.288,34.464,21.252"/>
<path fill="#50505A" stroke="#50505A" stroke-miterlimit="10" d="M118,69.44c0,15.465-6.098,29.527-16.008,39.927
	c0.048-0.003,0.093-0.008,0.143-0.008c0.482,0,0.891,0.114,1.229,0.303c9.82-10.561,15.844-24.698,15.844-40.222
	c0-32.604-26.525-59.128-59.129-59.128c-32.603,0-59.128,26.524-59.128,59.128c0,15.498,6.009,29.61,15.802,40.165
	c0.351-0.226,0.785-0.364,1.306-0.369C8.214,98.85,2.157,84.845,2.157,69.44c0-31.939,25.984-57.921,57.921-57.921
	C92.017,11.519,118,37.501,118,69.44z"/>
</svg>
