<svg version="1.1" id="Layer_1" xmlns="http://www.w3.org/2000/svg" xmlns:xlink="http://www.w3.org/1999/xlink" x="0px" y="0px"
	 width="24px" height="24px" viewBox="0 0 24 24" enable-background="new 0 0 24 24" xml:space="preserve">
<path fill="#3D3E3E" d="M19.494,8.362c0-4.139-3.355-7.494-7.494-7.494S4.506,4.224,4.506,8.362c0,1.516,0.452,2.926,1.226,4.105
	l6.153,11.522l6.51-11.722c0.104-0.167,0.197-0.339,0.287-0.515l0.074-0.133H18.75C19.227,10.635,19.494,9.53,19.494,8.362z
	 M12,13.699c-2.948,0-5.338-2.389-5.338-5.337c0-2.948,2.39-5.338,5.338-5.338c2.949,0,5.338,2.39,5.338,5.338
	C17.338,11.31,14.949,13.699,12,13.699z"/>
</svg>
