<?xml version="1.0" encoding="utf-8"?>
<!-- Generator: Adobe Illustrator 15.0.0, SVG Export Plug-In . SVG Version: 6.00 Build 0)  -->
<!DOCTYPE svg PUBLIC "-//W3C//DTD SVG 1.1//EN" "http://www.w3.org/Graphics/SVG/1.1/DTD/svg11.dtd">
<svg version="1.1" id="Layer_1" xmlns="http://www.w3.org/2000/svg" xmlns:xlink="http://www.w3.org/1999/xlink" x="0px" y="0px"
	 width="32px" height="32px" viewBox="0 0 32 32" enable-background="new 0 0 32 32" xml:space="preserve">
<g>
	<rect y="5" fill="#5A5A5A" width="19.75" height="14"/>
	<circle fill="#5A5A5A" cx="7.021" cy="25.55" r="3.005"/>
	<circle fill="#5A5A5A" cx="23.49" cy="25.55" r="3.005"/>
	<path fill="#5A5A5A" d="M31.063,19.299c-0.062-3.09-1.34-4.942-1.896-5.59c-0.974-0.772-2.333-0.958-2.583-0.958s-5.138,0-5.138,0
		v8.592c0,0,5.771-1.176,5.771,1.442c0,1.966,0,3.245,0,3.245h3.847C31.063,26.03,31.043,20.514,31.063,19.299z M22.584,19.084
		v-4.833l4.125,0.041c0,0,0.959,0.083,1.5,0.625c1.042,1.083,1.25,4.167,1.25,4.167H22.584z"/>
	<path fill="#5A5A5A" d="M0.334,20.334v1.917H2.25v1.999h0.8c0.492-1.728,2.064-3,3.95-3s3.458,1.272,3.95,3H15v1.25h4.625
		l0.001-5.166H0.334z"/>
</g>
</svg>
