<?xml version="1.0" encoding="utf-8"?>
<!DOCTYPE svg PUBLIC "-//W3C//DTD SVG 1.1//EN" "http://www.w3.org/Graphics/SVG/1.1/DTD/svg11.dtd">
<svg version="1.1" id="Layer_1" xmlns="http://www.w3.org/2000/svg" xmlns:xlink="http://www.w3.org/1999/xlink" x="0px" y="0px"
	 width="16px" height="16px" viewBox="0 0 16 16" enable-background="new 0 0 16 16" xml:space="preserve">
<g>
	<path d="M9.71,11.054H5.635v-0.408c0-0.692,0.079-1.256,0.236-1.688c0.157-0.433,0.391-0.828,0.702-1.185
		s1.01-0.986,2.096-1.888C9.249,5.413,9.539,4.98,9.539,4.587c0-0.393-0.116-0.699-0.348-0.917C8.958,3.452,8.606,3.343,8.134,3.343
		c-0.507,0-0.927,0.168-1.259,0.504C6.542,4.183,6.329,4.77,6.236,5.605L2.075,5.091c0.143-1.53,0.699-2.761,1.667-3.694
		c0.969-0.933,2.454-1.4,4.456-1.4c1.558,0,2.817,0.325,3.774,0.976c1.302,0.879,1.952,2.052,1.952,3.518
		c0,0.607-0.168,1.193-0.504,1.758s-1.021,1.254-2.059,2.069c-0.722,0.572-1.178,1.032-1.368,1.379
		C9.806,10.043,9.71,10.496,9.71,11.054z M5.496,12.137h4.365v3.85H5.496V12.137z"/>
</g>
</svg>
