<?xml version="1.0" encoding="utf-8"?>
<!-- Generator: Adobe Illustrator 15.0.0, SVG Export Plug-In . SVG Version: 6.00 Build 0)  -->
<!DOCTYPE svg PUBLIC "-//W3C//DTD SVG 1.1//EN" "http://www.w3.org/Graphics/SVG/1.1/DTD/svg11.dtd">
<svg version="1.1" id="Layer_1" xmlns="http://www.w3.org/2000/svg" xmlns:xlink="http://www.w3.org/1999/xlink" x="0px" y="0px"
	 width="42px" height="42px" viewBox="0 0 42 42" enable-background="new 0 0 42 42" xml:space="preserve">
<g>
	<circle id="XMLID_3_" fill="#525151" cx="21" cy="21" r="21"/>
	<path fill="#FFFFFF" d="M9.389,30.764c2.466,1.438,5.137,2.671,8.835,2.466c9.041-0.411,14.999-6.985,15.204-16.438
		c1.027-0.822,2.055-1.644,2.261-2.671c-0.822,0.411-1.85,0.616-2.877,0.821c1.027-0.821,1.85-1.644,2.261-3.081
		c-1.027,0.41-2.055,1.027-3.493,1.232c-3.082-3.904-10.89-0.822-9.451,4.931c-5.343-0.41-8.63-2.876-11.301-5.753
		c-1.438,2.466-0.206,6.37,1.644,7.397c-0.822,0-1.644-0.206-2.26-0.617c0.205,3.288,1.849,4.727,4.314,5.548
		c-0.616,0-1.438,0.206-2.26,0c0.822,2.261,2.466,3.698,5.137,3.904C15.553,30.147,12.06,31.175,9.389,30.764z"/>
</g>
</svg>
