<?xml version="1.0" encoding="utf-8"?>
<!DOCTYPE svg PUBLIC "-//W3C//DTD SVG 1.1//EN" "http://www.w3.org/Graphics/SVG/1.1/DTD/svg11.dtd">
<svg version="1.1" id="Layer_1" xmlns="http://www.w3.org/2000/svg" xmlns:xlink="http://www.w3.org/1999/xlink" x="0px" y="0px"
	 width="120px" height="120px" viewBox="0 0 120 120" enable-background="new 0 0 120 120" xml:space="preserve">
<g>
	<path fill="#50505A" d="M82.356,86.444v-9.009L71.612,74.77c-0.7-2.715-1.798-5.271-3.227-7.601l5.687-8.453l-6.368-6.372
		l-8.916,5.371c-2.212-1.312-4.618-2.328-7.167-2.992l-2.009-10.274h-9.01l-2.514,10.126c-2.81,0.667-5.454,1.757-7.864,3.201
		l-8.585-5.774l-6.37,6.37l5.38,8.931c-1.443,2.384-2.538,4.997-3.221,7.775l-9.568,1.872v9.009l9.542,2.369
		c0.661,2.736,1.722,5.313,3.121,7.671l-5.839,8.682l6.369,6.369l8.994-5.416c2.477,1.51,5.209,2.644,8.116,3.323l1.956,9.989h9.006
		l2.523-10.16c2.641-0.69,5.13-1.758,7.407-3.143l8.547,5.749l6.371-6.369l-5.408-8.976c1.378-2.309,2.431-4.832,3.099-7.51
		L82.356,86.444z M44.922,100.565c-10.186,0-18.441-8.257-18.441-18.443c0-10.183,8.255-18.44,18.441-18.44
		c10.186,0,18.442,8.258,18.442,18.44C63.364,92.309,55.108,100.565,44.922,100.565z"/>
</g>
<g>
	<path fill="#50505A" d="M92.606,20.082l-2.509-5.834l-7.703,1.266c-1.209-1.563-2.632-2.913-4.207-4.022l1.328-7.06l-5.899-2.354
		l-4.278,5.962c-1.799-0.232-3.641-0.22-5.477,0.06l-4.164-6.095l-5.835,2.511l1.193,7.26c-1.634,1.215-3.043,2.656-4.203,4.264
		l-7.168-1.349l-2.352,5.9l5.973,4.287c-0.271,1.945-0.251,3.943,0.081,5.933l-5.675,3.879l2.51,5.834l6.84-1.124
		c1.19,1.588,2.595,2.963,4.158,4.099l-1.362,7.25l5.899,2.351l4.315-6.014c2.026,0.288,4.111,0.26,6.185-0.109l4.049,5.925
		l5.834-2.511l-1.197-7.283c1.52-1.184,2.833-2.568,3.922-4.099l7.14,1.342l2.351-5.901l-6.003-4.306
		c0.248-1.879,0.228-3.807-0.086-5.728L92.606,20.082z M72.297,39.659c-6.598,2.839-14.246-0.209-17.084-6.807
		c-2.837-6.596,0.209-14.244,6.806-17.082c6.597-2.838,14.245,0.209,17.083,6.805C81.939,29.172,78.893,36.821,72.297,39.659z"/>
</g>
<g>
	<path fill="#50505A" d="M113.04,57.605l-1.729-4.022l-5.309,0.874c-0.834-1.079-1.814-2.009-2.9-2.774l0.914-4.867l-4.066-1.622
		l-2.948,4.11c-1.239-0.161-2.511-0.152-3.776,0.041l-2.869-4.201l-4.023,1.73l0.823,5.003c-1.126,0.838-2.099,1.832-2.897,2.94
		l-4.941-0.929l-1.622,4.067l4.118,2.956c-0.187,1.34-0.173,2.719,0.057,4.088l-3.913,2.676l1.73,4.021l4.716-0.774
		c0.819,1.095,1.788,2.042,2.865,2.826l-0.938,4.997l4.066,1.62l2.974-4.146c1.397,0.198,2.835,0.181,4.264-0.073l2.792,4.083
		l4.021-1.729l-0.824-5.021c1.046-0.815,1.953-1.77,2.703-2.826l4.92,0.927l1.62-4.068l-4.138-2.969
		c0.172-1.296,0.157-2.623-0.06-3.948L113.04,57.605z M99.04,71.1c-4.549,1.957-9.819-0.146-11.775-4.692
		c-1.958-4.546,0.143-9.819,4.691-11.774c4.548-1.958,9.819,0.144,11.775,4.69C105.688,63.871,103.587,69.144,99.04,71.1z"/>
</g>
</svg>
