<?xml version="1.0" encoding="utf-8"?>
<!DOCTYPE svg PUBLIC "-//W3C//DTD SVG 1.1//EN" "http://www.w3.org/Graphics/SVG/1.1/DTD/svg11.dtd">
<svg version="1.1" id="Layer_1" xmlns="http://www.w3.org/2000/svg" xmlns:xlink="http://www.w3.org/1999/xlink" x="0px" y="0px"
	 width="120px" height="120px" viewBox="0 0 120 120" enable-background="new 0 0 120 120" xml:space="preserve">
<path fill="#50505A" d="M62.461,47.342h-4.324c-0.24,0-0.479,0.193-0.53,0.427l-1.535,7.103l-1.535,7.102
	c-0.051,0.234-0.289,0.426-0.528,0.426h-2.624h-0.438c-3.027,0-2.678-2.094-2.057-4.963c0.006-0.028,0.012-0.057,0.019-0.086
	l0.068-0.361c0.004-0.023,0.009-0.047,0.013-0.068l0.139-0.736l0.147-0.789c0.046-0.238,0.114-0.585,0.159-0.804l0.698-3.41
	l0.698-3.41c0.048-0.235-0.108-0.428-0.349-0.428h-4.438c-0.24,0-0.477,0.193-0.526,0.428l-0.955,4.527l-0.954,4.527
	c0,0.002-0.001,0.005-0.001,0.007l-0.089,0.421c-1.099,5.018-0.807,9.803,5.167,9.953c0.098,0.002,0.173,0.004,0.173,0.004h9.377
	c0.24,0,0.478-0.193,0.528-0.428l2.021-9.506l2.022-9.506C62.856,47.535,62.701,47.342,62.461,47.342L62.461,47.342z"/>
<path fill="#50505A" d="M16.15,47.292h-4.749c-0.24,0-0.48,0.192-0.533,0.425l-0.45,1.988l-0.451,1.988
	c-0.053,0.233,0.101,0.426,0.341,0.426h4.785c0.24,0,0.479-0.192,0.53-0.427l0.436-1.987l0.435-1.986v0
	C16.544,47.484,16.391,47.292,16.15,47.292L16.15,47.292z"/>
<path fill="#50505A" d="M14.773,53.476H9.987c-0.24,0-0.48,0.192-0.533,0.427l-0.672,2.977L8.11,59.857
	c-0.053,0.234-0.137,0.619-0.188,0.854l-0.646,3.04l-0.646,3.039c-0.05,0.234-0.153,0.613-0.23,0.84c0,0-0.894,2.661-2.397,2.631
	c-0.064-0.002-0.126-0.002-0.188-0.004c-0.729-0.014-1.301-0.023-1.301-0.023H2.515c-0.239-0.004-0.48,0.184-0.536,0.416
	l-0.497,2.088L0.986,74.82c-0.055,0.233,0.095,0.426,0.334,0.43c0.853,0.012,2.761,0.032,3.917,0.032
	c3.754,0,5.733-2.08,7.002-8.065l1.485-6.872l1.393-6.443C15.167,53.668,15.013,53.476,14.773,53.476L14.773,53.476z"/>
<path fill="#50505A" d="M102.896,51.866l-0.198-0.819l-0.196-0.84l-0.1-0.425c-0.389-1.51-1.53-2.382-4.007-2.382l-3.858-0.004
	l-3.552-0.004h-0.306h-3.692c-0.239,0-0.478,0.191-0.527,0.427l0,0l-0.177,0.835l-0.208,0.986l-0.06,0.276l-1.799,8.432
	l-1.709,8.005c-0.051,0.236-0.067,0.523-0.039,0.641c0.029,0.117,0.489,0.215,0.73,0.215h3.605c0.24,0,0.544-0.044,0.675-0.098
	c0.131-0.053,0.324-0.523,0.372-0.758l0.642-3.172l0.642-3.171c0-0.001,0-0.004,0.001-0.006l0.086-0.422l0.777-3.643l0.687-3.217
	c0.051-0.234,0.287-0.425,0.526-0.425l11.348-0.005C102.798,52.291,102.95,52.1,102.896,51.866L102.896,51.866z"/>
<path fill="#50505A" d="M117.503,44.457c-0.239,0.001-0.632,0.003-0.872,0.003h-3.634c-0.239,0-0.547,0.163-0.683,0.361
	l-8.031,11.767c-0.136,0.198-0.29,0.169-0.344-0.065l-0.591-2.592c-0.053-0.234-0.293-0.425-0.534-0.425h-5.162
	c-0.241,0-0.383,0.188-0.317,0.419l2.313,8.105c0.066,0.231,0.07,0.61,0.012,0.843l-1.009,3.923
	c-0.061,0.233,0.088,0.423,0.328,0.423h5.103c0.24,0,0.485-0.189,0.546-0.423l1.009-3.923c0.059-0.232,0.227-0.58,0.37-0.771
	l13.04-17.306c0.144-0.192,0.066-0.348-0.175-0.346L117.503,44.457L117.503,44.457z"/>
<path fill="#50505A" d="M76.483,54.607v-0.005c-0.03,0.261-0.271,0.452-0.511,0.452h-6.546c-0.226,0-0.341-0.154-0.308-0.344
	c0.002-0.005,0.003-0.011,0.006-0.015c0,0-0.002,0-0.004,0.002c0.001-0.008,0.001-0.015,0.003-0.022c0,0,0.013-0.046,0.03-0.111
	c0.625-1.662,1.898-2.753,4.292-2.753C76.141,51.811,76.667,53.127,76.483,54.607L76.483,54.607z M74.563,47.051
	c-8.401,0-10.393,5.1-11.51,10.248c-1.117,5.247-1.021,10.152,7.674,10.152h0.309c0.027,0,0.056,0,0.083,0h0.244h0.089h0.228
	c0.033,0,0.067,0,0.102,0c0.088,0,0.175-0.001,0.263-0.001h0.062c0.344-0.001,0.693-0.003,1.043-0.004h0.018
	c2.296-0.009,4.6-0.026,5.532-0.034c0.238-0.003,0.472-0.195,0.521-0.429l0.352-1.721l0.068-0.335l0.421-2.051
	c0.048-0.236-0.11-0.429-0.35-0.429h-7.817c-3.109,0-4.032-0.826-3.692-3.254h12.495l-0.001,0.001c0.004,0,0.007-0.001,0.01-0.001
	c0.198-0.004,0.382-0.141,0.455-0.323c0.014-0.035,0.024-0.071,0.03-0.109l-0.002,0.001C83.043,51.765,82.511,47.052,74.563,47.051
	L74.563,47.051z"/>
<path fill="#50505A" d="M34.849,54.581L34.731,55c0,0.001,0,0.001,0,0.001l-0.943,3.344l-0.943,3.343
	c-0.065,0.23-0.314,0.42-0.555,0.42h-4.994c-3.788,0-4.71-2.962-3.788-7.333c0.922-4.469,2.73-7.248,6.459-7.529
	C35.06,46.861,36.08,50.444,34.849,54.581L34.849,54.581z M38.274,61.85c0,0,2.354-5.716,2.889-9.019
	C41.893,48.411,39.68,42,31.131,42c-8.5,0-12.191,6.121-13.599,12.774c-1.409,6.702,0.437,12.579,8.889,12.531l6.667-0.024
	l6.231-0.023c0.24-0.002,0.485-0.191,0.547-0.424l1.085-4.141c0.061-0.232-0.086-0.424-0.326-0.425l-1.041-0.006l-1.04-0.007
	c-0.204-0.001-0.321-0.133-0.296-0.309C38.253,61.916,38.26,61.883,38.274,61.85L38.274,61.85z"/>
</svg>
