<?xml version="1.0" encoding="utf-8"?>
<!-- Generator: Adobe Illustrator 15.0.0, SVG Export Plug-In . SVG Version: 6.00 Build 0)  -->
<!DOCTYPE svg PUBLIC "-//W3C//DTD SVG 1.1//EN" "http://www.w3.org/Graphics/SVG/1.1/DTD/svg11.dtd">
<svg version="1.1" id="Layer_1" xmlns="http://www.w3.org/2000/svg" xmlns:xlink="http://www.w3.org/1999/xlink" x="0px" y="0px"
	 width="25px" height="25px" viewBox="0 0 25 25" enable-background="new 0 0 25 25" xml:space="preserve">
<circle fill="#525351" cx="12.5" cy="12.5" r="12.22"/>
<polygon fill="#FFFFFF" points="21.172,12.594 19.164,12.594 19.164,10.586 18.18,10.586 18.18,12.594 16.172,12.594 16.172,13.578 
	18.18,13.578 18.18,15.586 19.164,15.586 19.164,13.578 21.172,13.578 "/>
<path fill="#FFFFFF" d="M6.149,18.15c0,1.465,1.349,2.846,4.262,2.846c3.457,0,5.342-1.895,5.342-3.756
	c0-1.365-0.803-2.039-1.688-2.771l-0.724-0.555c-0.22-0.178-0.522-0.416-0.522-0.852c0-0.435,0.302-0.714,0.563-0.97
	c0.844-0.652,1.688-1.347,1.688-2.811c0-1.506-0.916-2.232-1.379-2.608h1.191l1.301-0.796h-4.188c-1.085,0-2.55,0.111-3.695,1.042
	C7.438,7.651,7.154,8.727,7.154,9.638c0,1.543,1.206,3.107,3.335,3.107c0.203,0,0.422-0.019,0.645-0.04
	c-0.101,0.238-0.203,0.437-0.203,0.773c0,0.613,0.322,0.99,0.604,1.346c-0.904,0.061-2.593,0.158-3.836,0.912
	C6.51,16.428,6.149,17.438,6.149,18.15z M11.434,12.241c-1.728,0-2.511-2.198-2.511-3.523c0-0.516,0.1-1.099,0.441-1.515
	C9.686,6.807,10.248,6.6,10.771,6.6c1.667,0,2.529,2.217,2.529,3.642c0,0.357-0.038,0.939-0.501,1.396
	C12.477,11.955,11.936,12.241,11.434,12.241z M9.643,15.697c0.843-0.279,1.93-0.318,2.111-0.318c0.198,0,0.3,0,0.459,0.02
	c1.529,1.07,2.193,1.604,2.193,2.613c0,1.227-1.025,2.139-2.955,2.139c-2.149,0-3.536-1.01-3.536-2.414
	C7.915,16.328,9.201,15.854,9.643,15.697z"/>
</svg>
