<?xml version="1.0" encoding="utf-8"?>
<!-- Generator: Adobe Illustrator 15.0.0, SVG Export Plug-In . SVG Version: 6.00 Build 0)  -->
<!DOCTYPE svg PUBLIC "-//W3C//DTD SVG 1.1//EN" "http://www.w3.org/Graphics/SVG/1.1/DTD/svg11.dtd">
<svg version="1.1" id="Layer_1" xmlns="http://www.w3.org/2000/svg" xmlns:xlink="http://www.w3.org/1999/xlink" x="0px" y="0px"
	 width="42px" height="42px" viewBox="0 0 42 42" enable-background="new 0 0 42 42" xml:space="preserve">
<g>
	<circle id="XMLID_7_" fill="#525151" cx="21" cy="21" r="21"/>
	<g>
		<path fill="#FFFFFF" d="M22.019,29.293c-0.001-2.549-1.026-4.838-2.696-6.512l0,0c-1.674-1.669-3.962-2.696-6.513-2.697l0,0v-4.22
			c3.702-0.001,7.073,1.506,9.496,3.933l0,0c2.427,2.424,3.935,5.795,3.934,9.496l0,0H22.019L22.019,29.293z"/>
		<path fill="#FFFFFF" d="M28.319,29.294c0-4.294-1.733-8.161-4.545-10.977l0,0c-2.815-2.812-6.684-4.545-10.977-4.547l0,0v-4.22
			c10.905,0.001,19.742,8.838,19.744,19.742l0,0L28.319,29.294L28.319,29.294z"/>
		<path fill="#FFFFFF" d="M18.602,26.386c0-1.605-1.302-2.906-2.907-2.906c-1.606,0-2.909,1.301-2.909,2.906
			c0,1.606,1.302,2.908,2.909,2.908C17.3,29.294,18.602,27.992,18.602,26.386z"/>
	</g>
</g>
</svg>
