<?xml version="1.0" encoding="utf-8"?>
<!-- Generator: Adobe Illustrator 15.0.0, SVG Export Plug-In . SVG Version: 6.00 Build 0)  -->
<!DOCTYPE svg PUBLIC "-//W3C//DTD SVG 1.1//EN" "http://www.w3.org/Graphics/SVG/1.1/DTD/svg11.dtd">
<svg version="1.1" id="Layer_1" xmlns="http://www.w3.org/2000/svg" xmlns:xlink="http://www.w3.org/1999/xlink" x="0px" y="0px"
	 width="42px" height="42px" viewBox="0 0 42 42" enable-background="new 0 0 42 42" xml:space="preserve">
<g>
	<circle id="XMLID_4_" fill="#525151" cx="21" cy="21" r="21"/>
	<path fill-rule="evenodd" clip-rule="evenodd" fill="#FFFFFF" d="M32.498,18.576l-0.179-0.37l-0.299-0.235
		c-0.393-0.307-2.375,0.021-2.91-0.464c-0.378-0.35-0.435-0.977-0.549-1.825c-0.214-1.647-0.35-1.733-0.605-2.289
		c-0.935-1.982-3.466-3.473-5.206-3.68h-4.714c-3.708,0-6.738,3.038-6.738,6.746v7.865c0,3.701,3.031,6.731,6.738,6.731h7.744
		c3.708,0,6.718-3.03,6.739-6.731l0.043-5.448L32.498,18.576z M18.122,15.225h3.736c0.713,0,1.291,0.578,1.291,1.284
		s-0.578,1.29-1.291,1.29h-3.736c-0.713,0-1.291-0.584-1.291-1.29S17.409,15.225,18.122,15.225z M25.717,25.508h-7.595
		c-0.713,0-1.291-0.585-1.291-1.283c0-0.706,0.578-1.284,1.291-1.284h7.595c0.706,0,1.283,0.578,1.283,1.284
		C27,24.923,26.423,25.508,25.717,25.508z"/>
</g>
</svg>
