<?xml version="1.0" encoding="iso-8859-1"?>
<!-- Generator: Adobe Illustrator 14.0.0, SVG Export Plug-In . SVG Version: 6.00 Build 43363)  -->
<!DOCTYPE svg PUBLIC "-//W3C//DTD SVG 1.1//EN" "http://www.w3.org/Graphics/SVG/1.1/DTD/svg11.dtd">
<svg version="1.1" id="Layer_1" xmlns="http://www.w3.org/2000/svg" xmlns:xlink="http://www.w3.org/1999/xlink" x="0px" y="0px"
	 width="100px" height="50px" viewBox="0 0 100 50" enable-background="new 0 0 100 50" xml:space="preserve">
<path fill="#FFFFFF" d="M64.252,37.168l-8.13-8.128c1.546-2.125,2.469-4.73,2.469-7.558c0-7.107-5.761-12.868-12.868-12.868
	c-7.107,0-12.868,5.76-12.868,12.868c0,7.107,5.76,12.868,12.868,12.868c2.828,0,5.433-0.923,7.556-2.469l8.13,8.13L64.252,37.168z
	 M45.723,30.328c-4.878,0-8.847-3.968-8.847-8.846c0-4.878,3.969-8.847,8.847-8.847c4.877,0,8.846,3.969,8.846,8.847
	C54.569,26.36,50.601,30.328,45.723,30.328z"/>
</svg>
