<svg version="1.1" id="Layer_1" xmlns="http://www.w3.org/2000/svg" xmlns:xlink="http://www.w3.org/1999/xlink" x="0px" y="0px"
	 width="24px" height="24px" viewBox="0 0 24 24" enable-background="new 0 0 24 24" xml:space="preserve">
<path fill="#3D3E3E" d="M20.924,17.166l0.939,0.939v2.818h-0.939v1.408c0,0.26-0.211,0.471-0.471,0.471h-0.939
	c-0.258,0-0.469-0.211-0.469-0.471v-1.408H4.955v1.408c0,0.26-0.212,0.471-0.47,0.471H3.546c-0.26,0-0.47-0.211-0.47-0.471v-1.408
	H2.137v-2.818l0.939-0.939V9.652h1.879v5.635h14.09V9.652h1.879V17.166z M20.924,4.016H3.076L0.258,7.773v0.939h23.484V7.773
	L20.924,4.016z M20.924,2.137c0-0.517-0.424-0.939-0.939-0.939H4.016c-0.517,0-0.939,0.422-0.939,0.939v0.939h17.848V2.137z"/>
</svg>
