<svg version="1.1" id="Layer_1" xmlns="http://www.w3.org/2000/svg" xmlns:xlink="http://www.w3.org/1999/xlink" x="0px" y="0px"
	 width="300px" height="100px" viewBox="0 0 300 100" enable-background="new 0 0 300 100" xml:space="preserve">
<path fill="#737373" d="M67.067,41.404h-3.344v-6.925c0-6.867-5.565-12.433-12.433-12.433s-12.435,5.566-12.435,12.433v6.925h-3.05
	c-1.934,0-3.501,1.567-3.501,3.5v19.593c0,1.935,1.567,3.5,3.501,3.5h31.26c1.935,0,3.501-1.565,3.501-3.5V44.904
	C70.568,42.971,69.001,41.404,67.067,41.404z M54.234,59.354c0,0,0.615,1.935-1.493,1.935s-0.294,0-2.549,0
	c-2.256,0-1.641-1.787-1.641-1.787l0.796-4.433c-1.036-0.674-1.723-1.842-1.723-3.17c0-2.085,1.691-3.778,3.779-3.778
	c2.089,0,3.78,1.693,3.78,3.778c0,1.347-0.703,2.521-1.76,3.191L54.234,59.354z M59.041,41.404H43.714v-6.872
	c0-4.232,3.431-7.664,7.663-7.664c4.231,0,7.663,3.431,7.663,7.664L59.041,41.404L59.041,41.404z"/>
<text transform="matrix(1 0 0 1 90.0449 35.0146)" fill="#737373" font-size="13">Veja nossos selos de</text>
<text transform="matrix(1 0 0 1 86.877 65.9082)" fill="#737373" font-size="30">Loja segura</text>
</svg>
