<svg version="1.1" id="Layer_1" xmlns="http://www.w3.org/2000/svg" xmlns:xlink="http://www.w3.org/1999/xlink" x="0px" y="0px"
	 width="300px" height="100px" viewBox="0 0 300 100" enable-background="new 0 0 300 100" xml:space="preserve">
<g>
	<path fill="#737373" d="M59.653,34.111c-0.678-1.792-2.68-2.695-4.473-2.017l-25.965,9.817c-1.791,0.678-2.696,2.68-2.018,4.471
		l5.888,15.568c0.678,1.792,2.68,2.696,4.471,2.018l1.668-0.632v-8.285l-1.757,0.663c-0.45,0.169-0.953-0.059-1.123-0.508
		c-0.168-0.45,0.059-0.952,0.509-1.122l2.371-0.893v-7.654c0-2.189,1.775-3.964,3.964-3.964h19.285L59.653,34.111z M38.501,49.395
		l-3.47,1.332c-0.277,0.102-0.588-0.033-0.693-0.313l-1.331-3.468c-0.106-0.277,0.031-0.588,0.31-0.694l3.469-1.331
		c0.276-0.105,0.588,0.032,0.694,0.309l1.331,3.468C38.917,48.978,38.778,49.29,38.501,49.395z"/>
	<path fill="#737373" d="M71.646,42.654h-27.76c-1.915,0-3.469,1.552-3.469,3.469v16.644c0,1.916,1.554,3.468,3.469,3.468h27.761
		c1.916,0,3.469-1.552,3.469-3.468V46.123C75.116,44.206,73.562,42.654,71.646,42.654z M73.704,62.84
		c0,1.096-0.888,1.983-1.984,1.983h-27.6c-1.096,0-1.983-0.888-1.983-1.983V46.048c0-1.095,0.888-1.981,1.983-1.981h27.6
		c1.096,0,1.984,0.887,1.984,1.981V62.84z"/>
	<rect x="41.892" y="48.548" fill="#737373" width="31.934" height="5.036"/>
	<path fill="#737373" d="M60.253,57.116c0,0.525-0.425,0.951-0.952,0.951H45.238c-0.527,0-0.952-0.426-0.952-0.951l0,0
		c0-0.525,0.425-0.953,0.952-0.953h14.063C59.828,56.165,60.253,56.591,60.253,57.116L60.253,57.116z"/>
</g>
<text transform="matrix(1 0 0 1 90.2378 35.0146)" fill="#737373" font-size="13">Ajuda para formas de</text>
<text transform="matrix(1 0 0 1 87.0698 65.9082)" fill="#737373" font-size="30">Pagamento</text>
</svg>
