<svg version="1.1" id="Layer_1" xmlns="http://www.w3.org/2000/svg" xmlns:xlink="http://www.w3.org/1999/xlink" x="0px" y="0px"
	 width="300px" height="100px" viewBox="0 0 300 100" enable-background="new 0 0 300 100" xml:space="preserve">
<g>
	<circle fill="#737373" cx="65.592" cy="63.244" r="4.336"/>
	<circle fill="#737373" cx="42.573" cy="63.244" r="4.336"/>
	<path fill="#737373" d="M74.102,50.416c-0.413-0.761-3.635-6.623-4.576-8.097c-0.941-1.474-2.649-1.33-2.649-1.33h-5.418v-4.812
		c0-1.044-0.847-1.891-1.892-1.891H33.809c-1.045,0-1.891,0.846-1.891,1.891V60.41c0,1.046,0.846,1.893,1.891,1.893h2.918
		c0.452-2.822,2.897-4.98,5.846-4.98c2.95,0,5.396,2.158,5.846,4.98h11.148c0.025,0,0.049-0.003,0.075-0.005h0.104
		c0.452-2.821,2.896-4.976,5.845-4.976c2.949,0,5.393,2.154,5.845,4.976h1.302c0,0,1.886-0.032,1.886-1.812c0-1.78,0-7.373,0-7.373
		S74.514,51.178,74.102,50.416z M63.089,52.422v-8.178h3.963c0,0,0.697,0.094,1.078,0.855c0.38,0.761,3.931,7.385,3.931,7.385
		L63.089,52.422z"/>
</g>
<text transform="matrix(1 0 0 1 89.6787 35.0146)" fill="#737373" font-size="13">Ajuda para</text>
<text transform="matrix(1 0 0 1 89.5107 65.9082)" fill="#737373" font-size="30">Frete</text>
</svg>
